<svg xmlns="http://www.w3.org/2000/svg" width="522.323" height="522.385" viewBox="0 0 522.323 522.385">
  <path id="Path_4595" data-name="Path 4595" d="M543.778,124.357a55.474,55.474,0,0,0-54.087-14.536l-13.872,3.687-62.427,16.75L79.354,219.765A55.629,55.629,0,0,0,38.917,262.93a51.493,51.493,0,0,0-1.034,10.555c0,15.2,6.493,30.03,17.414,41.028a15.3,15.3,0,0,0,3.245,2.508L233.5,419.437a42.4,42.4,0,0,1,15.051,14.983l99.985,169.123c8.929,14.979,24.35,25.453,41.764,26.637,1.256.073,2.435.073,3.691.073a60.171,60.171,0,0,0,14.757-1.916,55.536,55.536,0,0,0,39.55-39.627l43.536-162.485,16.75-62.5,49.659-185.281A55.409,55.409,0,0,0,543.778,124.357Z" transform="translate(-37.883 -107.867)" fill="#0a2373" opacity="0.89"/>
</svg>
