<svg xmlns="http://www.w3.org/2000/svg" width="101.493" height="59.971" viewBox="0 0 101.493 59.971">
  <g id="Group_7039" data-name="Group 7039" transform="translate(-37.142 -35.275)">
    <g id="Group_7032" data-name="Group 7032">
      <g id="Group_7029" data-name="Group 7029">
        <path id="Path_4270" data-name="Path 4270" d="M73.1,81.033H68.313V94.279a.965.965,0,0,1-.966.966H66.9a.965.965,0,0,1-.966-.966V81.033H61.246a.966.966,0,0,1-.966-.966v-.141a.965.965,0,0,1,.966-.966H73.1a.966.966,0,0,1,.967.966v.141A.967.967,0,0,1,73.1,81.033Z" fill="#fff"/>
        <path id="Path_4271" data-name="Path 4271" d="M73.368,92.083l.081-.069a.97.97,0,0,1,1.359.1,4,4,0,0,0,3.163,1.374c1.626,0,2.544-.683,2.544-1.7-.023-3.062-7.35-.73-7.373-5.606-.024-2.121,1.931-3.676,4.546-3.676a5.468,5.468,0,0,1,4.206,1.646A.959.959,0,0,1,81.7,85.6l-.046.03a.97.97,0,0,1-1.278-.2,3.1,3.1,0,0,0-2.667-1.156c-1.39,0-2.379.613-2.379,1.649,0,2.827,7.4.613,7.4,5.631,0,2.191-1.955,3.675-4.759,3.675a6.081,6.081,0,0,1-4.685-1.76A.965.965,0,0,1,73.368,92.083Z" fill="#fff"/>
        <path id="Path_4272" data-name="Path 4272" d="M85.579,94.279V79.932a.966.966,0,0,1,.966-.966h.447a.965.965,0,0,1,.966.966V94.279a.965.965,0,0,1-.966.966h-.447A.966.966,0,0,1,85.579,94.279Z" fill="#fff"/>
        <path id="Path_4273" data-name="Path 4273" d="M102.4,88.021a6.978,6.978,0,0,1-.032.72.323.323,0,0,1-.111.212h0a.331.331,0,0,1-.217.081H93.234c.071,2.615,1.72,4.264,3.77,4.264a3.519,3.519,0,0,0,2.808-1.314.961.961,0,0,1,1.214-.208l.113.065a.969.969,0,0,1,.234,1.485A5.7,5.7,0,0,1,97,95.23,6.108,6.108,0,0,1,90.831,88.8a6.2,6.2,0,0,1,6.1-6.291A5.48,5.48,0,0,1,102.4,88.021Zm-2.262-.565a3.4,3.4,0,0,0-3.228-3.039,3.69,3.69,0,0,0-3.51,3.039Z" fill="#fff"/>
        <path id="Path_4274" data-name="Path 4274" d="M115.9,88.021c0,.311-.014.551-.031.72a.332.332,0,0,1-.111.212h0a.333.333,0,0,1-.217.081h-8.805c.071,2.615,1.72,4.264,3.769,4.264a3.516,3.516,0,0,0,2.808-1.314.962.962,0,0,1,1.215-.208l.112.065a.969.969,0,0,1,.235,1.485,5.7,5.7,0,0,1-4.37,1.9,6.108,6.108,0,0,1-6.172-6.431,6.2,6.2,0,0,1,6.1-6.291A5.479,5.479,0,0,1,115.9,88.021Zm-2.261-.565a3.4,3.4,0,0,0-3.228-3.039,3.689,3.689,0,0,0-3.51,3.039Z" fill="#fff"/>
        <path id="Path_4275" data-name="Path 4275" d="M138.581,88.28v6a.965.965,0,0,1-.966.966h-.47a.966.966,0,0,1-.967-.966v-5.9c0-2.5-1.319-3.841-3.062-3.841a3.36,3.36,0,0,0-3.275,3.581V94.28a.966.966,0,0,1-.966.966h-.447a.965.965,0,0,1-.966-.966v-5.9c0-2.5-1.32-3.841-3.063-3.841A3.331,3.331,0,0,0,121.1,88V94.28a.966.966,0,0,1-.966.966h-.447a.966.966,0,0,1-.967-.966V83.71a.966.966,0,0,1,.967-.966h.329a.966.966,0,0,1,.966.966v.754a4.965,4.965,0,0,1,3.958-1.956,4.512,4.512,0,0,1,4.288,2.757,4.914,4.914,0,0,1,4.452-2.757C136.579,82.508,138.581,84.723,138.581,88.28Z" fill="#fff"/>
      </g>
      <g id="Group_7031" data-name="Group 7031">
        <g id="Group_7030" data-name="Group 7030">
          <path id="Path_4276" data-name="Path 4276" d="M93.076,71.319H78.089c-1.8,0-3.02-.271-3.652-1.605a4.754,4.754,0,0,1-7.141.093,5.91,5.91,0,0,1-.959-3.488,6.268,6.268,0,0,1,.679-3.114H65.751A4.6,4.6,0,0,0,63.2,63.7a2.535,2.535,0,0,0-.749,2.154v8.931a1.112,1.112,0,0,1-.8,1.067h0a1.112,1.112,0,0,1-1.427-1.067V65.851a4.559,4.559,0,0,1,1.381-3.723,5.96,5.96,0,0,1,3.723-.959h5.525a4.068,4.068,0,0,1,3.582,1.638,4.888,4.888,0,0,1,.913,3.161,5.593,5.593,0,0,0,.585,2.856c.445.632,1.194.528,2.3.528l14.846.047Zm-19.926-5c0-2.13-.773-3.207-2.295-3.207s-2.294,1.077-2.294,3.207c0,2.084.772,3.114,2.294,3.114S73.15,68.4,73.15,66.319Z" fill="#fff"/>
          <path id="Path_4277" data-name="Path 4277" d="M102.745,71.319H101.34a4.323,4.323,0,0,1-3.254-1.241,4.415,4.415,0,0,1-3.324,1.241H93.076V69.4h1.545a2.088,2.088,0,0,0,2.342-2.388V62.236a1.1,1.1,0,0,1,.786-1.055h0a1.1,1.1,0,0,1,1.414,1.055v4.845a2.318,2.318,0,0,0,2.318,2.318h1.264Zm-5.01,3.348a1.24,1.24,0,0,1-1.217,1.218,1.2,1.2,0,0,1-1.194-1.218,1.184,1.184,0,0,1,1.194-1.194A1.22,1.22,0,0,1,97.735,74.667Zm3.137,0a1.24,1.24,0,0,1-1.217,1.218,1.219,1.219,0,0,1-1.194-1.218,1.2,1.2,0,0,1,1.194-1.194A1.22,1.22,0,0,1,100.872,74.667Z" fill="#fff"/>
          <path id="Path_4278" data-name="Path 4278" d="M112.18,71.319h-1.545a4.326,4.326,0,0,1-3.255-1.264,4.253,4.253,0,0,1-3.3,1.264h-1.334l-.026-1.92,1.22-.047a2.08,2.08,0,0,0,2.318-2.388V56.081a1.1,1.1,0,0,1,.769-1.049l.023-.007a1.1,1.1,0,0,1,1.432,1.049V67.081a2.271,2.271,0,0,0,2.271,2.271h1.428Z" fill="#fff"/>
          <path id="Path_4279" data-name="Path 4279" d="M132.923,71.319H111.641V69.352H114.4V64.269a1.113,1.113,0,0,1,.808-1.07h0a1.113,1.113,0,0,1,1.416,1.07v5.083h4.636V63.277a1.11,1.11,0,0,1,.8-1.066h0a1.112,1.112,0,0,1,1.427,1.066v6.075h4.682v-7.1a1.113,1.113,0,0,1,.8-1.067h0a1.113,1.113,0,0,1,1.426,1.067v7.1l2.037.047Z" fill="#fff"/>
          <path id="Path_4280" data-name="Path 4280" d="M138.635,67.175a3.985,3.985,0,0,1-1.194,2.973,4.427,4.427,0,0,1-3.208,1.171h-1.8V69.4h1.685a2.08,2.08,0,0,0,2.318-2.388V62.236a1.1,1.1,0,0,1,.786-1.055h0a1.1,1.1,0,0,1,1.415,1.055Zm-3.161-9.347a1.218,1.218,0,0,1-1.194,1.217,1.239,1.239,0,0,1-1.217-1.217,1.219,1.219,0,0,1,1.217-1.194A1.2,1.2,0,0,1,135.474,57.828Zm3.161,0a1.224,1.224,0,0,1-1.218,1.217,1.239,1.239,0,0,1-1.217-1.217,1.219,1.219,0,0,1,1.217-1.194A1.2,1.2,0,0,1,138.635,57.828Z" fill="#fff"/>
        </g>
      </g>
    </g>
    <g id="Group_7038" data-name="Group 7038">
      <g id="Group_7035" data-name="Group 7035">
        <g id="Group_7034" data-name="Group 7034">
          <g id="Group_7033" data-name="Group 7033">
            <path id="Path_4281" data-name="Path 4281" d="M59,45.366a2.4,2.4,0,0,0-2.337-.627l-.6.16-2.7.722-14.435,3.87a2.4,2.4,0,0,0-1.748,1.866,2.267,2.267,0,0,0-.045.456,2.525,2.525,0,0,0,.754,1.771.639.639,0,0,0,.14.108L45.6,58.119a1.813,1.813,0,0,1,.648.648l4.322,7.307a2.3,2.3,0,0,0,1.805,1.151c.053,0,.1.005.158.005a2.5,2.5,0,0,0,.637-.084,2.4,2.4,0,0,0,1.71-1.711l1.882-7.021.724-2.7L59.63,47.7A2.393,2.393,0,0,0,59,45.366ZM52.279,64.322,48,57.014a1.789,1.789,0,0,0-.648-.648l-7.338-4.3a.218.218,0,0,1,.054-.4l12.581-3.349L55.34,47.6l1.608-.428a.217.217,0,0,1,.265.267L54.79,56.429l-.728,2.707h0L52.677,64.27A.218.218,0,0,1,52.279,64.322Z" fill="#fff"/>
          </g>
        </g>
      </g>
      <g id="Group_7036" data-name="Group 7036">
        <path id="Path_4282" data-name="Path 4282" d="M65.184,42.741,63.43,44.5l-1.37-2.34L63.813,40.4Z" fill="#b4815a"/>
        <path id="Path_4283" data-name="Path 4283" d="M69.233,35.389a.23.23,0,0,0-.361-.047L67.455,36.76a.23.23,0,0,0-.036.279L68.7,39.225l1.753-1.753Z" fill="#b4815a"/>
        <path id="Path_4284" data-name="Path 4284" d="M65.437,38.73a.23.23,0,0,0,.034-.276L64.338,36.52a.229.229,0,0,0-.36-.046l-1.545,1.544,1.38,2.384Z" fill="#fff"/>
        <path id="Path_4285" data-name="Path 4285" d="M69.819,49.337l.205-.2,2.119,1.241a.673.673,0,0,1,.091.077,2.535,2.535,0,0,1,.754,1.779,2.36,2.36,0,0,1-.078.592A2.393,2.393,0,0,1,71.2,54.546L56.76,58.414h0l-2.676.717h0l-.02.006-.6.159a2.471,2.471,0,0,1-.638.085A2.422,2.422,0,0,1,50.5,56.335l2.147-8.012.722-2.7L55.252,38.6a2.4,2.4,0,0,1,1.865-1.745,2.479,2.479,0,0,1,2.23.709.7.7,0,0,1,.106.136v0l1.551-1.552a.23.23,0,0,1,.361.046l1.067,1.823L60.8,39.656a.228.228,0,0,0-.036.278l1.291,2.206.009.015-1.753,1.753-2.472-4.219a.219.219,0,0,0-.381.079L56.069,44.9,55.34,47.6l-2.423,8.987a.217.217,0,0,0,.265.266l1.608-.429.017,0h0l2.674-.712h0l12.58-3.35a.217.217,0,0,0,.08-.379l-1.873-1.1Z" fill="#b4815a"/>
        <path id="Path_4286" data-name="Path 4286" d="M73.346,45.809l0,0-1.565,1.566-1.752,1.754-.253-.149-2.087-1.221L69.446,46,71.2,44.246h0l2.084,1.221A.229.229,0,0,1,73.346,45.809Z" fill="#b4815a"/>
        <path id="Path_4287" data-name="Path 4287" d="M67.684,47.763l-1.753,1.753-.023-.014-2.342-1.37-.023-.014-.764-.447a1.813,1.813,0,0,1-.648-.648l-.445-.758-.009-.017,1.753-1.753.01.016.444.758a1.818,1.818,0,0,0,.649.649h0l.762.447.024.014L67.5,47.658l.156.09Z" fill="#fff"/>
        <path id="Path_4288" data-name="Path 4288" d="M71.545,38.878l.612.358a.229.229,0,0,0,.278-.036l1.418-1.417a.231.231,0,0,0-.046-.361l-.509-.3a1.812,1.812,0,0,1-.647-.646l-.294-.5A.23.23,0,0,0,72,35.929l-1.543,1.543.445.759A1.807,1.807,0,0,0,71.545,38.878Z" fill="#fff"/>
        <path id="Path_4289" data-name="Path 4289" d="M70.623,41.132l-1.79,1.731-.782-.456a1.8,1.8,0,0,1-.643-.643l-.46-.787L68.7,39.225l.452.771a1.8,1.8,0,0,0,.624.634l.334.2Z" fill="#fff"/>
        <path id="Path_4290" data-name="Path 4290" d="M68.051,42.407l.782.456-.123.118-.377.364-1.167,1.129a.228.228,0,0,1-.275.033l-.616-.36a1.8,1.8,0,0,1-.646-.647l-.445-.759.7-.7,1.053-1.054.007-.009h0l.46.787A1.8,1.8,0,0,0,68.051,42.407Z" fill="#b4815a"/>
        <path id="Path_4291" data-name="Path 4291" d="M72.743,42.7,71.2,44.246h0l-2.367-1.383,1.79-1.731L72.7,42.343A.23.23,0,0,1,72.743,42.7Z" fill="#b4815a"/>
      </g>
      <g id="Group_7037" data-name="Group 7037">
        <path id="Path_4292" data-name="Path 4292" d="M54.877,65.435l-2.108-.565a.217.217,0,0,1-.153-.266l4.639-17.313a.217.217,0,0,1,.266-.154l2.108.566Z" fill="#fff"/>
      </g>
      <path id="Path_4293" data-name="Path 4293" d="M73.637,48.8l-1.543,1.543h0l.047.029-2.119-1.241,1.752-1.754.256.15,1.558.912A.23.23,0,0,1,73.637,48.8Z" fill="#fff"/>
    </g>
  </g>
</svg>
