<svg xmlns="http://www.w3.org/2000/svg" width="102.412" height="60.514" viewBox="0 0 102.412 60.514">
  <g id="logo" transform="translate(-14.244 -14.173)">
    <g id="Group_7091" data-name="Group 7091" transform="translate(37.536 34.05)">
      <g id="Group_7088" data-name="Group 7088" transform="translate(0.055 24.203)">
        <path id="Path_4486" data-name="Path 4486" d="M39.942,40.368H35.115V53.735a.974.974,0,0,1-.975.975h-.45a.974.974,0,0,1-.975-.975V40.368H27.985a.974.974,0,0,1-.975-.975v-.143a.976.976,0,0,1,.975-.975H39.942a.976.976,0,0,1,.975.975v.143A.974.974,0,0,1,39.942,40.368Z" transform="translate(-27.01 -38.276)" fill="#122554"/>
        <path id="Path_4487" data-name="Path 4487" d="M34.385,49.9l.082-.069a.98.98,0,0,1,1.372.1,4.032,4.032,0,0,0,3.191,1.388c1.64,0,2.568-.689,2.568-1.712-.024-3.091-7.416-.737-7.44-5.658-.024-2.14,1.948-3.709,4.587-3.709a5.515,5.515,0,0,1,4.243,1.661.967.967,0,0,1-.192,1.459l-.046.031a.978.978,0,0,1-1.289-.2,3.13,3.13,0,0,0-2.692-1.167c-1.4,0-2.4.618-2.4,1.664,0,2.853,7.465.618,7.465,5.682,0,2.211-1.973,3.709-4.8,3.709A6.144,6.144,0,0,1,34.3,51.3.976.976,0,0,1,34.385,49.9Z" transform="translate(-21.179 -36.653)" fill="#122554"/>
        <path id="Path_4488" data-name="Path 4488" d="M40.969,53.732V39.255a.973.973,0,0,1,.975-.975H42.4a.974.974,0,0,1,.975.975V53.732a.976.976,0,0,1-.975.975h-.452A.974.974,0,0,1,40.969,53.732Z" transform="translate(-15.44 -38.273)" fill="#122554"/>
        <path id="Path_4489" data-name="Path 4489" d="M55.539,45.8c0,.313-.015.556-.031.726a.332.332,0,0,1-.112.214h0a.337.337,0,0,1-.219.082H46.292c.071,2.639,1.736,4.3,3.8,4.3A3.549,3.549,0,0,0,52.929,49.8a.969.969,0,0,1,1.225-.208l.113.066a.976.976,0,0,1,.236,1.5A5.751,5.751,0,0,1,50.1,53.072a6.165,6.165,0,0,1-6.229-6.491,6.259,6.259,0,0,1,6.158-6.348A5.529,5.529,0,0,1,55.539,45.8Zm-2.282-.571A3.428,3.428,0,0,0,50,42.16a3.723,3.723,0,0,0-3.541,3.067Z" transform="translate(-13.039 -36.653)" fill="#122554"/>
        <path id="Path_4490" data-name="Path 4490" d="M62.987,45.8a6.97,6.97,0,0,1-.033.726.332.332,0,0,1-.112.214h0a.334.334,0,0,1-.219.082H53.739c.071,2.639,1.736,4.3,3.8,4.3A3.546,3.546,0,0,0,60.376,49.8a.969.969,0,0,1,1.225-.208l.113.066a.978.978,0,0,1,.238,1.5,5.758,5.758,0,0,1-4.409,1.922,6.165,6.165,0,0,1-6.229-6.491,6.259,6.259,0,0,1,6.158-6.348A5.529,5.529,0,0,1,62.987,45.8Zm-2.282-.571a3.428,3.428,0,0,0-3.257-3.067,3.723,3.723,0,0,0-3.542,3.067Z" transform="translate(-6.866 -36.653)" fill="#122554"/>
        <path id="Path_4491" data-name="Path 4491" d="M79.3,46.059v6.053a.974.974,0,0,1-.975.975h-.476a.974.974,0,0,1-.975-.975V46.154c0-2.52-1.331-3.875-3.091-3.875a3.39,3.39,0,0,0-3.3,3.614v6.22a.974.974,0,0,1-.975.975H69.05a.973.973,0,0,1-.975-.975V46.154c0-2.52-1.331-3.875-3.091-3.875a3.36,3.36,0,0,0-3.328,3.495v6.339a.973.973,0,0,1-.975.975H60.23a.974.974,0,0,1-.975-.975V41.447a.976.976,0,0,1,.975-.975h.333a.974.974,0,0,1,.975.975v.761a5.009,5.009,0,0,1,3.994-1.973,4.553,4.553,0,0,1,4.327,2.782,4.959,4.959,0,0,1,4.492-2.782C77.274,40.234,79.3,42.469,79.3,46.059Z" transform="translate(-0.285 -36.653)" fill="#122554"/>
      </g>
      <g id="Group_7090" data-name="Group 7090">
        <g id="Group_7089" data-name="Group 7089">
          <path id="Path_4492" data-name="Path 4492" d="M60.127,38.7H45c-1.818,0-3.047-.272-3.685-1.619a4.121,4.121,0,0,1-3.614,1.677,4.134,4.134,0,0,1-3.592-1.584,5.967,5.967,0,0,1-.967-3.519,6.328,6.328,0,0,1,.684-3.142H32.556a4.638,4.638,0,0,0-2.575.5,2.557,2.557,0,0,0-.757,2.173V42.2a1.123,1.123,0,0,1-.8,1.077h0A1.122,1.122,0,0,1,26.98,42.2V33.184a4.6,4.6,0,0,1,1.394-3.755,6.011,6.011,0,0,1,3.756-.969h5.576a4.105,4.105,0,0,1,3.614,1.653,4.93,4.93,0,0,1,.922,3.189,5.636,5.636,0,0,0,.591,2.882c.448.638,1.205.532,2.315.532l14.98.048ZM40.021,33.658c0-2.151-.779-3.237-2.315-3.237s-2.315,1.086-2.315,3.237c0,2.1.779,3.142,2.315,3.142S40.021,35.761,40.021,33.658Z" transform="translate(-26.98 -22.208)" fill="#122554"/>
          <path id="Path_4493" data-name="Path 4493" d="M54.862,38.717H53.444a4.359,4.359,0,0,1-3.283-1.251,4.457,4.457,0,0,1-3.356,1.251h-1.7V36.78h1.56a2.106,2.106,0,0,0,2.363-2.409V29.553a1.109,1.109,0,0,1,.794-1.064h0a1.11,1.11,0,0,1,1.426,1.064v4.888a2.339,2.339,0,0,0,2.339,2.339h1.275ZM49.807,42.1a1.251,1.251,0,0,1-1.229,1.229A1.216,1.216,0,0,1,47.373,42.1a1.2,1.2,0,0,1,1.205-1.205A1.23,1.23,0,0,1,49.807,42.1Zm3.166,0a1.251,1.251,0,0,1-1.229,1.229A1.232,1.232,0,0,1,50.538,42.1a1.211,1.211,0,0,1,1.205-1.205A1.23,1.23,0,0,1,52.973,42.1Z" transform="translate(-11.958 -22.224)" fill="#122554"/>
          <path id="Path_4494" data-name="Path 4494" d="M59.972,41.535h-1.56A4.357,4.357,0,0,1,55.13,40.26a4.289,4.289,0,0,1-3.33,1.275H50.452L50.426,39.6l1.231-.048A2.1,2.1,0,0,0,54,37.142V26.16a1.112,1.112,0,0,1,.775-1.059l.024-.007a1.111,1.111,0,0,1,1.445,1.059V37.259a2.292,2.292,0,0,0,2.292,2.292h1.441Z" transform="translate(-7.547 -25.042)" fill="#122554"/>
          <path id="Path_4495" data-name="Path 4495" d="M76.823,38.717H55.349V36.732h2.787V31.6a1.12,1.12,0,0,1,.816-1.079h0A1.12,1.12,0,0,1,60.38,31.6v5.128h4.678V30.6a1.121,1.121,0,0,1,.8-1.075h0A1.122,1.122,0,0,1,67.3,30.6v6.13h4.726V29.564a1.119,1.119,0,0,1,.8-1.075h0a1.121,1.121,0,0,1,1.439,1.075v7.169l2.054.048Z" transform="translate(-3.467 -22.224)" fill="#122554"/>
          <path id="Path_4496" data-name="Path 4496" d="M73.081,36.594a4.028,4.028,0,0,1-1.205,3,4.471,4.471,0,0,1-3.237,1.18h-1.82V38.838h1.7a2.1,2.1,0,0,0,2.337-2.409V31.611a1.112,1.112,0,0,1,.794-1.064h0a1.111,1.111,0,0,1,1.428,1.064Zm-3.189-9.431a1.23,1.23,0,0,1-1.205,1.229,1.251,1.251,0,0,1-1.229-1.229,1.23,1.23,0,0,1,1.229-1.205A1.21,1.21,0,0,1,69.891,27.163Zm3.189,0a1.235,1.235,0,0,1-1.229,1.229,1.251,1.251,0,0,1-1.229-1.229,1.23,1.23,0,0,1,1.229-1.205A1.215,1.215,0,0,1,73.081,27.163Z" transform="translate(6.04 -24.282)" fill="#122554"/>
        </g>
      </g>
    </g>
    <g id="Group_7097" data-name="Group 7097" transform="translate(14.244 14.173)">
      <g id="Group_7094" data-name="Group 7094" transform="translate(0 9.464)">
        <g id="Group_7093" data-name="Group 7093">
          <g id="Group_7092" data-name="Group 7092">
            <path id="Path_4497" data-name="Path 4497" d="M36.3,20.067a2.412,2.412,0,0,0-2.357-.633l-.6.161-2.723.73-14.567,3.9a2.418,2.418,0,0,0-1.763,1.882,2.189,2.189,0,0,0-.046.461A2.551,2.551,0,0,0,15,28.358a.689.689,0,0,0,.143.11l7.63,4.466a1.856,1.856,0,0,1,.655.655l4.36,7.374a2.328,2.328,0,0,0,1.822,1.161q.08.005.159.005a2.523,2.523,0,0,0,.644-.086,2.421,2.421,0,0,0,1.726-1.726l1.9-7.085.73-2.725,2.165-8.083A2.415,2.415,0,0,0,36.3,20.067ZM29.518,39.194,25.2,31.82a1.812,1.812,0,0,0-.655-.655l-7.4-4.334a.22.22,0,0,1,.055-.4l12.694-3.38,2.716-.724,1.624-.432a.219.219,0,0,1,.267.271L32.051,31.23l-.735,2.73v0l-1.4,5.179A.219.219,0,0,1,29.518,39.194Z" transform="translate(-14.244 -19.348)" fill="#122554"/>
          </g>
        </g>
      </g>
      <g id="Group_7095" data-name="Group 7095" transform="translate(13.393)">
        <path id="Path_4498" data-name="Path 4498" d="M31.145,19.362l-1.77,1.77-1.383-2.361L29.761,17Z" transform="translate(-16.242 -11.829)" fill="#b4815a"/>
        <path id="Path_4499" data-name="Path 4499" d="M32.794,14.288a.232.232,0,0,0-.364-.048L31,15.672a.23.23,0,0,0-.037.28l1.293,2.207,1.768-1.77Z" transform="translate(-13.806 -14.173)" fill="#b4815a"/>
        <path id="Path_4500" data-name="Path 4500" d="M31.23,17.143a.235.235,0,0,0,.033-.28L30.12,14.912a.232.232,0,0,0-.364-.046L28.2,16.424l1.392,2.4Z" transform="translate(-16.072 -13.656)" fill="#122554"/>
        <path id="Path_4501" data-name="Path 4501" d="M41.146,27.993l.207-.207,2.14,1.253a.742.742,0,0,1,.091.079,2.551,2.551,0,0,1,.761,1.794,2.373,2.373,0,0,1-.079.6,2.415,2.415,0,0,1-1.73,1.741l-14.567,3.9h0l-2.7.724h0l-.02.005-.6.161a2.534,2.534,0,0,1-.644.086,2.445,2.445,0,0,1-2.348-3.074l2.167-8.085.73-2.725,1.9-7.085A2.421,2.421,0,0,1,28.33,15.4a2.5,2.5,0,0,1,2.249.715.64.64,0,0,1,.106.137l0,0,1.565-1.565a.232.232,0,0,1,.364.046l1.077,1.84-1.651,1.651a.233.233,0,0,0-.037.282l1.3,2.226.009.015-1.768,1.768-2.495-4.258a.221.221,0,0,0-.384.08l-1.4,5.177-.737,2.73L24.09,35.314a.219.219,0,0,0,.269.267l1.622-.432L26,35.144h0l2.7-.717h0l12.7-3.38a.22.22,0,0,0,.08-.384l-1.891-1.106Z" transform="translate(-21.567 -13.804)" fill="#b4815a"/>
        <path id="Path_4502" data-name="Path 4502" d="M36.808,20.7,36.8,20.7l-1.578,1.58-1.768,1.768L33.2,23.9l-2.1-1.233,1.778-1.778,1.77-1.77h0l2.1,1.231A.232.232,0,0,1,36.808,20.7Z" transform="translate(-13.671 -10.071)" fill="#b4815a"/>
        <path id="Path_4503" data-name="Path 4503" d="M33.842,22.557l-1.768,1.768-.024-.013L29.687,22.93l-.022-.013-.772-.452a1.841,1.841,0,0,1-.655-.655l-.448-.764-.009-.016,1.768-1.77.011.016.446.766a1.841,1.841,0,0,0,.657.653h0l.77.452.024.015,2.206,1.289.155.091Z" transform="translate(-16.417 -9.957)" fill="#122554"/>
        <path id="Path_4504" data-name="Path 4504" d="M33.724,17.54l.618.362a.233.233,0,0,0,.282-.037l1.43-1.43a.231.231,0,0,0-.048-.364l-.512-.3a1.811,1.811,0,0,1-.653-.651l-.3-.508a.23.23,0,0,0-.362-.046l-1.558,1.556.45.766A1.811,1.811,0,0,0,33.724,17.54Z" transform="translate(-12.404 -13.905)" fill="#122554"/>
        <path id="Path_4505" data-name="Path 4505" d="M34.4,18.277l-1.807,1.747-.788-.461a1.811,1.811,0,0,1-.649-.649l-.465-.794,1.768-1.767.455.777a1.823,1.823,0,0,0,.631.64l.336.2Z" transform="translate(-14.007 -12.367)" fill="#122554"/>
        <path id="Path_4506" data-name="Path 4506" d="M32.609,18.762l.788.461-.124.119-.379.368-1.18,1.139a.232.232,0,0,1-.278.033l-.62-.362a1.821,1.821,0,0,1-.653-.655l-.448-.764.708-.708,1.063-1.064.007-.007,0,0,.465.794A1.811,1.811,0,0,0,32.609,18.762Z" transform="translate(-14.814 -11.566)" fill="#b4815a"/>
        <path id="Path_4507" data-name="Path 4507" d="M35.676,18.991l-1.558,1.556h0l-2.388-1.4,1.807-1.747,2.092,1.222A.232.232,0,0,1,35.676,18.991Z" transform="translate(-13.145 -11.495)" fill="#b4815a"/>
      </g>
      <g id="Group_7096" data-name="Group 7096" transform="translate(15.605 11.962)">
        <path id="Path_4508" data-name="Path 4508" d="M25.067,39.185l-2.127-.571a.22.22,0,0,1-.155-.269l4.682-17.469a.22.22,0,0,1,.269-.155l2.127.571Z" transform="translate(-22.777 -20.714)" fill="#122554"/>
      </g>
      <path id="Path_4509" data-name="Path 4509" d="M36.033,22.286l-1.556,1.558h0l.048.029-2.14-1.253,1.768-1.768.258.15,1.573.92A.232.232,0,0,1,36.033,22.286Z" transform="translate(0.793 -8.638)" fill="#122554"/>
    </g>
  </g>
</svg>
