<?xml version="1.0" standalone="no"?>
<!DOCTYPE svg PUBLIC "-//W3C//DTD SVG 1.1//EN" "http://www.w3.org/Graphics/SVG/1.1/DTD/svg11.dtd" >
<svg xmlns="http://www.w3.org/2000/svg">
<metadata>Generated by IcoMoon</metadata>
<defs>
<font id="safar" horiz-adv-x="1024">
<font-face units-per-em="1024" ascent="960" descent="-64" />
<missing-glyph horiz-adv-x="1024" />
<glyph unicode="&#x20;" horiz-adv-x="512" d="" />
<glyph unicode="&#xe900;" glyph-name="folder-f" d="M933.647 737.478h-415.824l-82.824 98.485c-2.472 2.972-6.177 4.638-10.039 4.518h-334.607c-50.086-0.497-90.411-41.269-90.353-91.357v-602.353c-0.003-50.048 40.307-90.762 90.353-91.256h843.294c50.045 0.494 90.355 41.208 90.353 91.256v499.451c0.003 50.048-40.307 90.76-90.353 91.256z" />
<glyph unicode="&#xe901;" glyph-name="arrow-down" d="M866.593 448.975l-354.155-382.313-355.085 382.844-93.819-87.017 358.618-386.65c49.412-53.275 131.396-53.089 180.934 0.387l357.376 385.789-93.87 86.96zM447.905 960h127.96v-895.711h-127.96v895.711z" />
<glyph unicode="&#xe902;" glyph-name="arrow-left" d="M513.519 802.658l-87.016 93.818-386.663-358.627c-53.276-49.413-53.090-131.4 0.387-180.939l385.799-357.386 86.959 93.872-382.32 354.165 382.854 355.097zM128.266 512.083h895.734v-127.963h-895.734v127.963z" />
<glyph unicode="&#xe903;" glyph-name="arrow-right" d="M984.16 537.849l-386.663 358.627-87.016-93.821 382.854-355.094-382.323-354.165 86.959-93.872 385.802 357.386c53.477 49.539 53.663 131.526 0.387 180.939zM0 512.101h895.734v-127.963h-895.734v127.963z" />
<glyph unicode="&#xe904;" glyph-name="arrow-up" d="M603.089 919.773c-49.539 53.476-131.524 53.662-180.937 0.387l-358.623-386.658 93.82-87.018 355.090 382.849 354.16-382.319 93.871 86.958-357.381 385.801zM447.905 831.724h127.961v-895.724h-127.961v895.724z" />
<glyph unicode="&#xe905;" glyph-name="bag" d="M1023.843 21.289l-51.639 853.422c-2.833 46.815-43.461 85.070-90.721 85.070h-738.469c-47.646 0-87.898-38.088-90.767-85.070l-52.087-853.422c-2.857-46.815 33.087-85.070 80.307-85.070h863.023c47.47 0 83.194 38.088 80.352 85.070zM115.849 49.949l48.59 796.103h695.562l48.171-796.105h-792.323zM625.442 732.324v-143.595c0-8.404-3.425-25.538-13.232-41.894-16.292-27.172-45.676-43.512-100.498-43.512s-84.207 16.337-100.498 43.512c-9.806 16.356-13.232 33.49-13.232 41.894v143.595h-113.73v-143.595c0-27.162 7.237-63.381 29.417-100.376 37.019-61.747 103.593-98.76 198.041-98.76s161.022 37.014 198.041 98.76c22.18 36.995 29.417 73.214 29.417 100.376v143.595h-113.725z" />
<glyph unicode="&#xe906;" glyph-name="calendar" d="M910.501 846.221h-0.28v-113.779h-113.779v113.779h-341.333v-113.779h-113.776v113.779h-227.835c-62.717 0-113.499-50.995-113.499-113.899v-682.424c0-63.011 50.816-113.899 113.499-113.899h797.003c62.717 0 113.499 50.995 113.499 113.899v682.424c0 63.011-50.816 113.899-113.499 113.899zM113.779 49.899c-0.008 455.021-0.019 682.536-0.040 682.547 530.989-0.037 796.485-0.077 796.485-0.12 0.005-455.021 0.019-682.536 0.040-682.547-530.992 0.035-796.485 0.077-796.485 0.12zM227.555 277.333h113.779v-113.779h-113.779v113.779zM455.112 277.333h113.779v-113.779h-113.779v113.779zM455.112 504.888h113.779v-113.779h-113.779v113.779zM227.555 504.888h113.779v-113.779h-113.779v113.779zM682.667 504.888h113.779v-113.779h-113.779v113.779zM227.555 960h113.779v-284.445h-113.779v284.445zM682.667 960h113.779v-284.445h-113.779v284.445z" />
<glyph unicode="&#xe907;" glyph-name="call" d="M970.405 261.133l-103.021 84.403c-67.117 54.986-171.304 49.782-232.533-11.445l-4.090-4.090c-10.267-10.267-26.991-10.186-37.113-0.061l-199.048 199.048c-10.049 10.049-10.247 26.211-0.564 36.473 0.177 0.186 0.356 0.37 0.537 0.554l-0.547-0.547c0.182 0.182 0.363 0.366 0.545 0.547 60.891 61.475 66.717 166.142 13.378 233.578l-83.557 105.636c-53.708 67.902-147.050 73.147-208.272 11.925l-15.348-15.348c-108.742-108.742-134.367-304.736-52.8-435.048 0 0 48.016-111.355 210.056-273.395s273.395-210.056 273.395-210.056c131.528-79.58 326.239-56.009 434.957 52.709l14.617 14.617c61.269 61.269 56.482 155.549-10.591 210.498zM906.978 124.651l-14.617-14.617c-74.639-74.639-216.43-91.817-306.755-37.167l-6.146 3.719-6.594 2.843c-8.096 3.491-28.39 14.494-59.070 35.072-54.49 36.549-115.68 86.802-181.755 152.877s-116.33 127.265-152.877 181.755c-20.578 30.681-31.584 50.975-35.072 59.070l-3.16 7.328-4.234 6.764c-54.917 87.735-37.212 230.193 38.090 305.494l15.348 15.348c17.019 17.019 37.366 15.861 52.164-2.848l83.557-105.636c20.603-26.047 17.936-71.393-5.841-95.173-50.582-51.173-50.332-133.611 0.572-184.512l199.048-199.048c51.026-51.026 134.028-51.056 185.148 0.061l4.090 4.090c23.208 23.208 66.71 25.357 92.18 4.49l103.021-84.403c19.234-15.755 20.36-38.053 2.905-55.506z" />
<glyph unicode="&#xe908;" glyph-name="cart" d="M232.572 29.202h93.202v-93.202h-93.202v93.202zM698.579 29.202h93.202v-93.202h-93.202v93.202zM328.802 212.042c-2.215 0-5.946 3.285-6.23 5.511l-83.497 655.512c-6.204 48.71-49.468 86.935-98.604 86.935h-94.301v-93.202h94.301c2.152 0 5.867-3.283 6.151-5.511l83.497-655.512c6.212-48.78 49.558-86.935 98.685-86.935h462.977v93.202h-462.98zM858.738 774.559h-679.695v-93.202h679.695c21.042 0 29.747-11.3 24.411-31.517l-51.69-195.776c-7.739-29.313-41.495-55.309-71.764-55.309h-340.72v-93.202h340.72c72.577 0 143.337 54.495 161.878 124.719l51.69 195.776c20.946 79.333-32.342 148.512-114.524 148.512z" />
<glyph unicode="&#xe909;" glyph-name="chart" d="M0 75.763h1024v-93.092h-1024v93.092zM837.895 913.327h-186.358c-51.364 0-93.002-41.636-93.002-93.19v-558.347c0-51.467 41.631-93.19 93.002-93.19h186.358c51.364 0 93.002 41.636 93.002 93.19v558.347c0.002 51.467-41.629 93.19-93.002 93.19zM837.808 261.789c0-0.041-62.086-0.074-186.26-0.098 0.050 0 0.076 186.148 0.079 558.448 0 0.041 62.086 0.074 186.26 0.098-0.052-0.002-0.079-186.151-0.079-558.448zM372.441 634.054h-186.358c-51.364 0-93.002-41.716-93.002-93.072v-279.308c0-51.404 41.631-93.072 93.002-93.072h186.358c51.364 0 93.002 41.716 93.002 93.072v279.308c0 51.401-41.631 93.072-93.002 93.072zM372.354 261.689h-186.183v279.273h186.181v-279.273z" />
<glyph unicode="&#xe90a;" glyph-name="chat" d="M909.942 960h-795.883c-62.629 0-113.339-50.827-113.339-113.528v-568.27c0-62.568 50.745-113.528 113.339-113.528h367.96l270.039-218.458c24.169-19.554 43.989-10.228 43.989 21.056v197.405h113.896c62.629 0 113.339 50.827 113.339 113.528v568.268c0 62.568-50.745 113.528-113.339 113.528zM909.662 278.292h-227.235v-129.604l-160.207 129.604h-407.882v568.089h795.327v-568.089zM227.954 619.146h113.619v-113.619h-113.619v113.619zM455.192 619.146h113.619v-113.619h-113.619v113.619zM682.427 619.146h113.619v-113.619h-113.619v113.619z" />
<glyph unicode="&#xe90b;" glyph-name="chevron-down" d="M119.467 763.733l392.533-392.537 392.533 392.537 119.467-119.47-512-511.997-512 511.997z" />
<glyph unicode="&#xe90c;" glyph-name="chevron-left" d="M827.733 840.533l-119.467 119.467-512-512 512-512 119.467 119.467-392.533 392.533z" />
<glyph unicode="&#xe90d;" glyph-name="chevron-right" d="M315.733 960l-119.467-119.467 392.533-392.533-392.533-392.533 119.467-119.467 512 512z" />
<glyph unicode="&#xe90e;" glyph-name="chevron-up" d="M119.467 132.267l392.533 392.533 392.533-392.533 119.467 119.467-512 512-512-512z" />
<glyph unicode="&#xe90f;" glyph-name="clock" d="M512 960c-282.771 0-512-229.229-512-512s229.229-512 512-512 512 229.229 512 512-229.229 512-512 512zM512 49.779c-219.933 0-398.221 178.291-398.221 398.221s178.288 398.221 398.221 398.221 398.221-178.288 398.221-398.221-178.288-398.221-398.221-398.221zM568.888 468.323v264.123h-113.776v-311.963l187.76-183.803 79.589 81.307z" />
<glyph unicode="&#xe910;" glyph-name="close" d="M-0.021 26.567l933.482 933.218 90.386-90.412-933.482-933.218-90.386 90.412zM0.14 869.431l90.386 90.412 933.482-933.218-90.386-90.412-933.482 933.218z" />
<glyph unicode="&#xe911;" glyph-name="credit-card" d="M1024 499.2v204.881c0 56.39-45.847 102.319-102.401 102.319h-819.199c-56.412 0-102.401-45.809-102.401-102.319v-512.162c0-56.39 45.847-102.319 102.401-102.319h819.199c56.412 0 102.401 45.809 102.401 102.319v204.881h-102.401v102.401h102.401zM921.587 192.001c-546.124-0.022-819.187-0.048-819.187-0.082 0.005 341.395 0.007 512.088 0.012 512.080 546.124 0.022 819.187 0.050 819.187 0.082-0.005-341.395-0.007-512.088-0.012-512.080zM92.345 601.303h854.855v-102.401h-854.855v102.401zM204.799 396.8h204.799v-102.401h-204.799v102.401zM511.999 396.8h102.401v-102.401h-102.401v102.401z" />
<glyph unicode="&#xe912;" glyph-name="delete" d="M768.716 652.588v-562.85c0-28.438-22.789-51.268-50.98-51.268h-410.393c-28.155 0-50.98 22.897-50.98 51.268v562.85h-102.472v-562.85c0-84.889 68.63-153.74 153.452-153.74h410.393c84.824 0 153.452 68.747 153.452 153.74v562.85h-102.472zM357.751 653.508h102.472v-513.273h-102.472v513.273zM563.237 652.588h102.472v-512.353h-102.472v512.353zM50.882 857.528h922.237v-102.472h-922.237v102.472zM613.513 960h-203.913c-28.335 0-51.304-22.741-51.304-51.235v-51.235h306.524v51.235c-0.002 28.296-23.042 51.235-51.307 51.235z" />
<glyph unicode="&#xe913;" glyph-name="discount" d="M942.928 391.77c129.451 44.659 95.113 237.967-41.275 235.016-28.122-0.531-45.915 30.959-31.087 55.768 31.448 52.614 20.521 116.63-26.573 155.674-46.284 38.373-110.066 37.295-155.105-2.619-21.064-18.666-54.089-6.494-58.457 22.042-9.226 60.261-57.91 102.349-118.391 102.349-60.429 0-109.146-42.052-118.377-102.351-4.36-28.484-37.363-40.732-58.459-22.040-45.042 39.914-108.831 40.986-155.125 2.603-47.084-39.034-58-103.044-26.551-155.66 14.798-24.759-2.938-56.331-31.087-55.768-60.253 1.331-109.719-39.581-120.381-99.327-10.728-60.12 21.802-115.919 79.107-135.688 26.773-9.238 33.027-45.294 10.797-63.405-47.328-38.551-58.804-102.407-27.907-155.286 30.436-52.091 90.739-73.149 146.649-51.204 26.026 10.213 53.207-12.893 47.639-41.407-11.742-60.122 20.048-116.498 77.309-137.089 56.65-20.375 116.394 2.549 145.287 55.744 13.594 25.024 48.601 25.070 62.22 0 28.781-52.987 88.408-76.205 145.273-55.756 57.269 20.595 89.066 76.973 77.323 137.101-5.565 28.494 21.601 51.626 47.639 41.407 55.91-21.946 116.209-0.9 146.641 51.181 30.905 52.887 19.433 116.752-27.899 155.308-22.22 18.102-15.994 54.165 10.793 63.407zM915.479 471.327c-89.2-30.777-109.921-148.403-36.498-208.212 23.342-19.016 11.081-42.986 8.388-47.597-3.599-6.158-17.357-25.448-43.224-15.301-88.466 34.724-179.153-42.892-160.991-135.879 5.659-28.985-16.329-39.303-23.204-41.776-6.625-2.381-29.288-8.214-42.838 16.73-45.206 83.232-164.417 84.166-210.128 0.002-13.546-24.939-36.225-19.106-42.854-16.72-6.871 2.471-28.849 12.784-23.19 41.762 18.145 92.895-72.434 170.639-160.989 135.879-25.877-10.153-39.633 9.159-43.232 15.321-2.695 4.609-14.946 28.562 8.394 47.575 73.452 59.836 52.642 177.456-36.502 208.212-27.168 9.372-25.010 34.015-23.703 41.345 3.228 18.074 15.72 30.366 35.766 29.973 95.442-2.006 153.162 102.664 105.090 183.087-15.612 26.118 3.948 44.31 8.025 47.693 5.416 4.491 24.713 17.702 45.595-0.804 71.592-63.439 183.151-21.214 197.466 72.292 4.394 28.701 28.041 30.931 35.185 30.931 7.148 0 30.813-2.23 35.205-30.927 14.357-93.781 126.072-135.56 197.462-72.292 20.886 18.505 40.164 5.304 45.575 0.818 4.084-3.384 23.659-21.591 8.049-47.707-48.158-80.569 9.835-185.111 105.090-183.087 28.112 0.545 34.484-22.785 35.766-29.963 1.306-7.332 3.465-31.979-23.705-41.355zM405.178 491.44c34.989 0 63.453 28.466 63.453 63.455s-28.464 63.455-63.453 63.455-63.455-28.466-63.455-63.455 28.466-63.455 63.455-63.455zM618.917 404.608c-34.989 0-63.453-28.466-63.453-63.455s28.464-63.455 63.453-63.455 63.455 28.466 63.455 63.455-28.466 63.455-63.455 63.455zM670.046 606.024c-16.433 16.433-43.078 16.433-59.511 0l-256.488-256.488c-26.593-26.593-7.39-71.835 29.757-71.835 10.769 0 21.539 4.108 29.757 12.325l256.488 256.488c16.431 16.431 16.431 43.076-0.002 59.509z" />
<glyph unicode="&#xe914;" glyph-name="download" d="M795.859 551.048l-283.416-305.949-284.16 306.374-75.079-69.636 286.987-309.42c39.542-42.634 105.151-42.485 144.794 0.31l285.993 308.731-75.12 69.59zM460.8 960h102.401v-716.8h-102.401v716.8zM51.199 38.401h921.599v-102.401h-921.599v102.401z" />
<glyph unicode="&#xe915;" glyph-name="edit" d="M991.008 864.8l-62.197 62.197c-44.069 44.069-115.355 43.964-159.39-0.071l-732.489-732.492-36.921-258.434 258.434 36.918 732.492 732.492c44.046 44.046 44.067 115.394 0.071 159.39zM205.372 79.066l-72.676-10.383 10.383 72.676c470.714 470.717 706.089 706.060 706.121 706.028 41.476-41.518 62.184-62.306 62.126-62.364l-705.954-705.957zM140.77 226.893l79.61 79.61 152.732-152.732-79.61-79.61-152.732 152.732z" />
<glyph unicode="&#xe916;" glyph-name="email" d="M870.419 806.4h-716.839c-84.804 0-153.581-68.846-153.581-153.77v-409.257c0-85.042 68.76-153.77 153.581-153.77h716.839c84.802 0 153.581 68.846 153.581 153.77v409.257c0 85.042-68.76 153.77-153.581 153.77zM921.599 243.373c0-28.392-22.951-51.372-51.18-51.372h-716.839c-28.289 0-51.18 22.908-51.18 51.372v409.257c0 28.392 22.951 51.372 51.18 51.372h716.839c28.289 0 51.18-22.908 51.18-51.372v-409.257zM790.55 648.283l-280.963-189.705-280.961 189.705-57.302-84.866 338.263-228.396 338.263 228.396z" />
<glyph unicode="&#xe917;" glyph-name="eye" d="M955.749 572.49l-218.258 163.478c-124.516 93.264-326.518 93.183-450.948 0l-218.695-163.778c-90.411-67.709-90.378-177.943-0.401-245.861l219.96-166.029c124.058-93.643 325.335-93.528 449.222 0l219.924 166.029c90.171 68.078 89.958 178.178-0.804 246.161zM894.86 408.042l-219.924-166.029c-87.438-66.012-238.357-66.039-325.853 0.005l-219.96 166.029c-35.689 26.94-35.66 55.423 0.089 82.195l218.695 163.778c88.091 65.969 240.104 65.988 328.2 0.005l218.258-163.478c36.214-27.12 36.294-55.481 0.494-82.505zM511.954 628.762c-98.951 0-179.169-80.215-179.169-179.169 0-98.951 80.215-179.169 179.169-179.169s179.169 80.215 179.169 179.169c0 98.954-80.215 179.169-179.169 179.169zM511.954 372.809c-42.408 0-76.786 34.379-76.786 76.786s34.379 76.786 76.786 76.786 76.786-34.379 76.786-76.786c0-42.408-34.379-76.786-76.786-76.786z" />
<glyph unicode="&#xe918;" glyph-name="facebook" d="M682.539 789.973h93.483v162.816c-16.128 2.219-71.595 7.211-136.192 7.211-134.784 0-227.115-84.779-227.115-240.597v-143.403h-148.736v-182.016h148.736v-457.984h182.357v457.941h142.72l22.656 182.016h-165.419v125.397c0.043 52.608 14.208 88.619 87.509 88.619z" />
<glyph unicode="&#xe919;" glyph-name="file" d="M921.599 550.4v102.401l-304.113 307.2h-412.706c-56.544 0-102.382-45.989-102.382-102.401v-819.199c0-56.554 45.799-102.401 102.509-102.401h614.181c56.614 0 102.509 45.929 102.509 102.319v409.68h-102.42c-0.034-273.065-0.062-409.598-0.086-409.598-409.526-0.014-614.292-0.014-614.292 0 0.046 546.132 0.038 819.199-0.019 819.199h369.989l244.43-246.912c-0.002-20.654-0.005-40.75-0.007-60.288h102.408zM614.4 652.8v256.001h-102.401v-256.001c0-56.491 45.794-102.401 102.302-102.401h246.161v102.401h-246.062z" />
<glyph unicode="&#xe91a;" glyph-name="gift" d="M933.883 682.303h-181.058c9.502 19.589 14.841 41.558 14.841 64.75 0 133.934-163.166 198.929-255.667 103.539-92.508 95.4-255.667 30.378-255.667-103.539 0-23.194 5.339-45.163 14.841-64.75h-181.058c-49.691 0-90.117-40.427-90.117-90.117v-122.826c0-23.226 18.828-42.055 42.055-42.055h43.39v-289.042c0-76.193 61.987-138.18 138.18-138.18h576.75c76.193 0 138.18 61.987 138.18 138.18v289.040h43.39c23.226 0 42.055 18.828 42.055 42.055v122.826c0 49.693-40.427 90.119-90.117 90.119zM618.805 811.803c35.704 0 64.752-29.046 64.752-64.75s-29.048-64.75-64.752-64.75h-64.75v64.75c0 35.704 29.048 64.75 64.75 64.75zM340.443 747.053c0 35.704 29.048 64.75 64.752 64.75 35.702 0 64.75-29.046 64.75-64.75v-64.75h-64.75c-35.704 0-64.752 29.048-64.752 64.75zM84.109 592.186c0 3.312 2.696 6.008 6.008 6.008h379.828v-86.779c-18.79 0-353.091 0-385.836 0zM169.555 138.261v289.042h300.391v-343.112h-246.32c-29.815 0-54.070 24.258-54.070 54.070zM854.445 138.261c0-29.815-24.256-54.070-54.070-54.070h-246.32v343.112h300.391zM939.891 511.412c-33.029 0-367.208 0-385.836 0v86.779h379.828c3.312 0 6.008-2.696 6.008-6.008z" />
<glyph unicode="&#xe91b;" glyph-name="hanger" d="M983.459 220.837l-497.654 377.946c-19.152 14.546-30.401 37.211-30.401 61.263v45.231c0 28.48 23.088 51.565 51.565 51.565s51.565-23.088 51.565-51.565v-50.609h102.57v50.609c0 85.127-69.009 154.136-154.136 154.136s-154.136-69.009-154.136-154.136v-45.231c0-56.118 26.244-109.006 70.937-142.945l497.657-377.946h-818.857l298.146 231.546-62.912 81.009-298.148-231.546c-25.018-19.431-39.656-49.332-39.656-81.009 0-56.647 45.921-102.57 102.57-102.57h818.857c32.067 0 62.289 14.998 81.685 40.536 34.259 45.113 25.461 109.458-19.653 143.717z" />
<glyph unicode="&#xe91c;" glyph-name="heart" d="M951.543 821.443c-96.309 99.91-253.225 99.91-349.834 0l-2.7-3-87.008-94.209-89.709 92.109c-96.909 100.21-253.225 99.91-349.834 0-96.609-99.61-96.609-262.226 0-362.135l355.835-414.34c46.205-53.705 120.612-53.705 166.516 0.3l356.735 419.141c96.609 100.21 96.609 262.226 0 362.135zM859.134 548.117l-2.7-3-345.034-405.64-344.434 401.139-2.7 2.7c-48.605 50.405-48.605 134.113 0 184.218 46.205 48.005 119.112 48.005 165.616 0l184.518-189.318 180.918 195.919c44.404 45.904 117.611 45.904 163.816-1.8 48.905-50.405 48.905-133.513 0-184.218z" />
<glyph unicode="&#xe91d;" glyph-name="home" d="M918.51 623.909l-333.998 308.052c-40.507 37.358-104.458 37.414-145.025 0l-334.001-308.052c-31.375-28.937-54.288-81.005-54.288-123.564v-462.079c0-56.47 46.063-102.264 102.408-102.264h308.009v305.131h101.856v-305.131h306.753c56.59 0 102.571 45.679 102.571 102.264v462.079c0.002 42.569-22.846 94.57-54.286 123.564zM870.227 38.401h-204.353v305.131h-306.657v-305.131c-137.078-0.038-205.617-0.084-205.617-0.134v462.079c0 13.903 10.91 38.7 21.312 48.293l334.001 308.049c1.322 1.219 4.858 1.217 6.175 0l334.001-308.049c10.45-9.638 21.312-34.358 21.312-48.293-0.017-307.963-0.074-461.944-0.173-461.944z" />
<glyph unicode="&#xe91e;" glyph-name="instagram" d="M512.171 710.912c-145.195 0-262.741-117.675-262.741-262.741 0-145.195 117.675-262.741 262.741-262.741 145.195 0 262.741 117.675 262.741 262.741 0 145.195-117.675 262.741-262.741 262.741zM512.171 277.632c-94.251 0-170.539 76.331-170.539 170.539s76.331 170.539 170.539 170.539 170.539-76.331 170.539-170.539c0.043-94.208-76.288-170.539-170.539-170.539zM723.115 956.757c-94.208 4.395-327.552 4.181-421.845 0-82.859-3.883-155.947-23.893-214.869-82.816-98.475-98.475-85.888-231.168-85.888-425.771 0-199.168-11.093-328.789 85.888-425.771 98.859-98.816 233.472-85.888 425.771-85.888 197.291 0 265.387-0.128 335.147 26.88 94.848 36.821 166.443 121.6 173.44 273.877 4.437 94.251 4.181 327.552 0 421.845-8.448 179.755-104.917 288.768-297.643 297.643zM872.235 87.552c-64.555-64.555-154.112-58.795-361.301-58.795-213.333 0-298.88-3.157-361.301 59.435-71.893 71.552-58.88 186.453-58.88 360.661 0 235.733-24.192 405.504 212.395 417.621 54.357 1.92 70.357 2.56 207.189 2.56l1.92-1.28c227.371 0 405.76 23.808 416.469-212.736 2.432-53.973 2.987-70.187 2.987-206.805-0.043-210.859 3.968-296.917-59.477-360.661zM846.72 721.28c0-33.909-27.489-61.397-61.397-61.397s-61.397 27.489-61.397 61.397c0 33.909 27.489 61.397 61.397 61.397s61.397-27.489 61.397-61.397z" />
<glyph unicode="&#xe91f;" glyph-name="linkedin" d="M1023.744-64v0.043h0.256v375.552c0 183.723-39.552 325.248-254.336 325.248-103.253 0-172.544-56.661-200.832-110.379h-2.987v93.227h-203.648v-683.648h212.053v338.517c0 89.131 16.896 175.317 127.275 175.317 108.757 0 110.379-101.717 110.379-181.035v-332.843zM16.896 619.648h212.309v-683.648h-212.309zM122.965 960c-67.883 0-122.965-55.083-122.965-122.965s55.083-124.117 122.965-124.117 122.965 56.235 122.965 124.117c-0.043 67.883-55.125 122.965-122.965 122.965z" />
<glyph unicode="&#xe920;" glyph-name="map-marker" d="M512.001 960c-226.201 0-409.599-183.397-409.599-409.599 0-307.198 370.685-600.599 370.685-600.599 21.504-18.305 56.524-18.509 77.824 0 0 0 370.685 293.401 370.685 600.599 0 226.201-183.397 409.599-409.596 409.599zM539.111 75.449c-9.55-8.882-18.636-17.076-27.11-24.499-8.474 7.423-17.537 15.617-27.11 24.499-40.397 37.555-80.82 79.591-118.322 124.826-102.040 123.033-161.766 244.556-161.766 350.129 0 169.65 137.548 307.198 307.198 307.198s307.198-137.548 307.198-307.198c0-105.573-59.75-227.096-161.766-350.129-37.505-45.237-77.925-87.271-118.322-124.826zM512.001 755.202c-113.099 0-204.798-91.699-204.798-204.798s91.699-204.798 204.798-204.798 204.798 91.699 204.798 204.798c0 113.099-91.699 204.798-204.798 204.798zM512.001 448.004c-56.551 0-102.4 45.849-102.4 102.4s45.849 102.4 102.4 102.4 102.4-45.849 102.4-102.4c-0.002-56.551-45.852-102.4-102.4-102.4z" />
<glyph unicode="&#xe921;" glyph-name="menu" d="M0 128h1024v-128.001h-1024v128.001zM0 512.001h1024v-128.001h-1024v128.001zM0 896.001h1024v-128.001h-1024v128.001z" />
<glyph unicode="&#xe922;" glyph-name="minus" d="M0 512.001h1024v-128.001h-1024v128.001z" />
<glyph unicode="&#xe923;" glyph-name="notification" d="M399.379 49.779c0-62.709 50.941-113.779 113.779-113.779 62.709 0 113.779 50.941 113.779 113.779h-227.557zM949.213 258.736l-94.451 138.451v223.669c0 185.816-148.555 336.013-333.677 339.056-1.317 0.021-2.635 0.035-3.957 0.043-1.32-0.024-2.64-0.053-3.957-0.091-185.104-5.36-337.603-157.432-342.304-343.363l-5.504-217.781-91.253-138.691c-34.552-52.515-11.515-95.085 51.365-95.085h773.797c62.92-0.003 85.235 42.056 49.941 93.792zM222.603 278.72l55.677 84.621 6.325 250.283c3.181 125.805 107.741 229.627 233.232 232.541 123.813-1.328 223.144-101.264 223.144-225.312v-258.781l56.864-83.355h-575.243zM513.173 959.949c1.32 0.008 2.64 0.008 3.957 0.003 1.317 0.024 2.635 0.040 3.955 0.048l-7.912-0.051z" />
<glyph unicode="&#xe924;" glyph-name="order" d="M921.599 550.4v102.401l-304.113 307.2h-412.706c-56.544 0-102.382-45.989-102.382-102.401v-819.199c0-56.554 45.799-102.401 102.509-102.401h614.181c56.614 0 102.509 45.929 102.509 102.319v409.68h-102.42c-0.034-273.065-0.062-409.598-0.086-409.598-409.526-0.014-614.292-0.014-614.292 0 0.046 546.132 0.038 819.199-0.019 819.199h369.989l244.43-246.912c-0.002-20.654-0.005-40.75-0.007-60.288h102.408zM614.4 652.8v256.001h-102.401v-256.001c0-56.491 45.794-102.401 102.302-102.401h246.161v102.401h-246.062z" />
<glyph unicode="&#xe925;" glyph-name="package" d="M1003.155 635.994l-86.253 257.562c-12.724 38.085-51.176 65.89-91.365 65.89h-624.89c-40.074 0-78.47-27.576-91.45-65.575l-87.898-257.562c-12.154-35.585-21.33-91.050-21.3-128.824l0.341-428.675c0.056-78.584 63.445-142.256 142.059-142.256h739.599c78.441 0 142.001 63.815 142.001 142.285v428.672c0 37.403-9.087 93.268-20.845 128.483zM910.371 78.839c0-15.847-12.78-28.683-28.401-28.683h-739.599c-15.762 0-28.457 12.751-28.457 28.742l-0.341 428.675c0 25.249 7.101 68.302 15.222 92.046l84.037 246.231h600.24l82.304-245.919c7.894-23.571 14.995-67.279 14.995-92.414v-428.678zM454.235 846.952h113.602v-227.201h-113.602v227.201zM340.633 392.549h340.803v-113.602h-340.803v113.602zM113.432 619.75h454.406v-113.602h-454.406v113.602zM681.437 619.75h255.603v-113.602h-255.603v113.602z" />
<glyph unicode="&#xe926;" glyph-name="password" d="M568.942 409.187l-52.944-52.944-123.469-41.157-36.811-110.434-110.434-36.811-31.186-93.559-109.965 16.645 393.215 389.508-73.273 73.971-393.215-389.506c-15.913-15.764-26.321-36.24-29.673-58.388-8.607-56.855 30.508-109.921 87.363-118.528l196.611-29.761 42.436 127.308 110.434 36.811 36.811 110.434 97.398 32.468 70.323 70.323-73.62 73.62zM693.17 680.687l73.622 73.622 73.622-73.622-73.622-73.622-73.622 73.622zM932.515 846.289c-121.981 121.981-319.753 121.981-441.734 0-110.158-110.158-120.836-282.122-32.036-404.262l75.228 74.701c-49.159 80.206-39.015 186.494 30.427 255.938 81.321 81.321 213.168 81.321 294.489 0s81.321-213.168 0-294.489c-68.681-68.681-173.399-79.357-253.283-32.028l-74.694-75.543c121.966-86.724 292.24-75.409 401.599 33.951 121.983 121.978 121.983 319.751 0.002 441.732z" />
<glyph unicode="&#xe927;" glyph-name="plus" d="M575.888 511.888v448.112h-127.775v-448.112h-448.112v-127.775h448.112v-448.112h127.775v448.112h448.112v127.775z" />
<glyph unicode="&#xe928;" glyph-name="printer" d="M108 144h68v-120c0-48.524 39.476-88 88-88h496c48.524 0 88 39.476 88 88v120h68c59.552 0 108 48.448 108 108v376c0 59.552-48.448 108-108 108h-68v136c0 48.524-39.476 88-88 88h-496c-48.524 0-88-39.476-88-88v-136h-68c-59.552 0-108-48.448-108-108v-376c0-59.552 48.448-108 108-108zM752 32h-480v320h480zM272 864h480v-128h-480zM96 628c0 6.618 5.382 12 12 12h808c6.618 0 12-5.382 12-12v-376c0-6.618-5.382-12-12-12h-68v160c0 26.51-21.49 48-48 48h-576c-26.51 0-48-21.49-48-48v-160h-68c-6.618 0-12 5.382-12 12zM192.040 496c26.51 0 48 21.49 48 48s-21.49 48-48 48h-0.020c-26.508 0-47.99-21.49-47.99-48s21.5-48 48.010-48z" />
<glyph unicode="&#xe929;" glyph-name="receipt" d="M893.092 960h-762.184c-60.203 0-109.008-48.805-109.008-109.008v-875.359c0-15.051 12.202-27.253 27.253-27.253 5.381 0 10.641 1.592 15.117 4.576l102.554 68.368c10.81 7.205 25.201 5.782 34.386-3.406l73.94-73.94c10.644-10.644 27.896-10.644 38.54 0l70.468 70.468c10.644 10.644 27.896 10.644 38.54 0l70.468-70.468c10.644-10.644 27.896-10.644 38.54 0l70.468 70.468c10.644 10.644 27.896 10.644 38.54 0l70.468-70.468c10.644-10.644 27.896-10.644 38.54 0l73.899 73.899c9.203 9.203 23.63 10.613 34.442 3.367l101.617-68.105c12.503-8.38 29.429-5.036 37.809 7.465 3.007 4.489 4.614 9.77 4.614 15.173v875.213c-0.003 60.203-48.808 109.008-109.010 109.008zM893.092 125.302c-49.656 19.7-107.508 8.709-146.554-30.339l-16.090-16.090-12.657 12.657c-53.212 53.212-139.487 53.212-192.7 0l-12.657-12.657-12.657 12.657c-53.212 53.212-139.487 53.212-192.7 0l-12.657-12.657-16.129 16.129c-39.255 39.255-97.531 50.165-147.382 30.007v725.984h762.184v-725.69zM239.913 742.265h545.803v-109.008h-545.803v109.008zM240.682 524.671h218.013v-109.008h-218.013v109.008zM567.703 524.671h109.008v-109.008h-109.008v109.008z" />
<glyph unicode="&#xe92a;" glyph-name="search" d="M745.913 300.548c-24.867-31.845-53.64-60.493-85.595-85.221l275.083-279.327 86.059 84.751-275.547 279.796zM364.896 960c-200.121 0-362.354-162.233-362.354-362.354s162.233-362.354 362.354-362.354 362.354 162.233 362.354 362.354-162.233 362.354-362.354 362.354zM364.896 356.078c-133.414 0-241.568 108.154-241.568 241.568s108.154 241.568 241.568 241.568 241.568-108.154 241.568-241.568-108.154-241.568-241.568-241.568z" />
<glyph unicode="&#xe92b;" glyph-name="settings" d="M943.67 376.136l-25.987 15.002c2.58 18.583 3.914 37.567 3.914 56.861s-1.334 38.278-3.914 56.861l25.987 15.002c48.802 28.176 65.635 90.778 37.387 139.704l-51.307 88.867c-28.152 48.758-90.794 65.698-139.704 37.459l-25.992-15.007c-29.786 23.285-62.88 42.54-98.455 56.94v29.993c0 56.326-45.797 102.182-102.293 102.182h-102.614c-56.302 0-102.293-45.749-102.293-102.182v-29.993c-35.575-14.4-68.669-33.655-98.455-56.94l-25.992 15.007c-48.814 28.183-111.456 11.465-139.704-37.459l-51.307-88.865c-28.152-48.758-11.508-111.473 37.387-139.704l25.987-15.002c-2.58-18.583-3.914-37.567-3.914-56.861s1.334-38.278 3.914-56.861l-25.987-15.002c-48.802-28.176-65.635-90.778-37.387-139.704l51.307-88.865c28.152-48.761 90.794-65.7 139.704-37.462l25.994 15.007c29.786-23.285 62.88-42.54 98.455-56.94v-29.993c0-56.326 45.799-102.182 102.293-102.182h102.614c56.302 0 102.293 45.749 102.293 102.182v29.993c35.575 14.4 68.669 33.655 98.455 56.94l25.992-15.007c48.814-28.183 111.456-11.465 139.704 37.459l51.307 88.865c28.15 48.761 11.508 111.475-37.39 139.704zM816.259 490.774c1.954-14.066 2.942-28.342 2.942-42.775s-0.989-28.709-2.942-42.775l-9.485-68.292 85.55-49.392-51.199-88.68-85.704 49.481-54.432-42.552c-22.514-17.599-47.35-31.985-73.81-42.696l-63.979-25.898v-98.794h-102.401v98.794l-63.979 25.898c-26.46 10.711-51.298 25.097-73.81 42.696l-54.432 42.552-85.704-49.481-51.199 88.68 85.55 49.392-9.485 68.292c-1.954 14.066-2.942 28.342-2.942 42.775s0.989 28.709 2.942 42.775l9.485 68.292-85.55 49.392 51.199 88.68 85.704-49.481 54.432 42.552c22.514 17.599 47.35 31.985 73.81 42.696l63.979 25.901v98.794h102.401v-98.794l63.979-25.898c26.46-10.711 51.298-25.097 73.81-42.696l54.432-42.552 85.704 49.481 51.199-88.68-85.55-49.392 9.485-68.294zM511.999 652.8c-113.107 0-204.799-91.692-204.799-204.799s91.692-204.799 204.799-204.799 204.799 91.692 204.799 204.799-91.69 204.799-204.799 204.799zM511.999 345.6c-56.554 0-102.401 45.847-102.401 102.401s45.847 102.401 102.401 102.401 102.401-45.847 102.401-102.401-45.847-102.401-102.401-102.401z" />
<glyph unicode="&#xe92c;" glyph-name="shield" d="M796.739 957.383l-566.297 2.614c-94.135 0.434-171.202-75.538-171.762-169.689l-1.631-274.633c-0.653-110.054 60.424-263.168 136.414-342.413 0 0 204.327-237.535 325.945-237.265 121.62 0.269 311.908 234.824 311.908 234.824 74.983 80.087 134.456 236.106 134.799 346.040l0.842 269.388c0.293 93.924-75.916 170.696-170.219 171.133zM852.403 517.219c-0.259-82.704-49.766-210.649-104.097-268.677l-2.758-2.945-2.543-3.132c-0.978-1.207-3.302-4.011-6.833-8.174-6.143-7.241-13.238-15.388-21.15-24.202-22.619-25.201-46.965-50.384-71.798-73.592-28.509-26.638-55.624-48.705-79.701-64.469-23.666-15.495-40.683-22.31-44.369-22.318-4.813-0.011-26.35 9.003-55.384 28.429-23.65 15.823-49.785 36.653-77.193 61.199-26.422 23.664-52.434 49.315-76.705 74.983-8.491 8.979-16.124 17.281-22.75 24.668-3.824 4.264-6.359 7.153-7.457 8.43l-4.134 4.552c-55.573 57.95-105.256 182.609-104.777 263.029l1.631 274.633c0.187 31.294 26.020 56.799 57.527 56.653l566.297-2.617c31.56-0.147 57.13-25.868 57.031-57.066l-0.837-269.386z" />
<glyph unicode="&#xe92d;" glyph-name="shop" d="M1012.481 636.054c-132.475 279.668-128.836 272.409-129.036 272.409-14.831 31.307-46.799 51.537-81.442 51.537-10.019 0-570.147 0-580.004 0-34.643 0-66.611-20.23-81.442-51.537-0.2 0 3.503 7.396-129.036-272.409-31.407-66.302 5.731-143.010 73.924-161.815v-277.233c0-49.691 40.427-90.117 90.117-90.117h294.384v-86.779h-171.557c-23.226 0-42.055-18.829-42.055-42.055s18.829-42.055 42.055-42.055h427.223c23.226 0 42.055 18.829 42.055 42.055s-18.829 42.055-42.055 42.055h-171.557v86.779h294.384c49.691 0 90.117 40.427 90.117 90.117v277.231c68.233 18.817 105.315 95.55 73.926 161.817zM554.056 875.89h75.054l61.718-234.526c11.601-44.083-21.616-87.226-67.24-87.226-38.34 0-69.531 31.191-69.531 69.531v252.221zM469.946 623.668c0-66.36-84.34-94.673-124.598-42.451-13.265 17.21-17.703 39.131-12.174 60.146l61.718 234.528h75.054zM87.536 600.047c130.2 274.87 129.234 272.607 129.034 272.407 0.989 2.087 3.122 3.436 5.431 3.436h85.92c-2.535-9.635-68.563-260.537-71.031-269.916-8.032-30.52-35.682-51.836-67.242-51.836h-53.061c-23.609-0.002-39.153 24.586-29.052 45.908zM848.439 190.998h-672.877c-3.312 0-6.008 2.696-6.008 6.008 0 286.017-0.108 273.022 0.092 273.022 45.261 0 86.867 19.856 115.36 52.222 59.764-68.227 164.963-69.633 226.994-4.029 62.071-65.648 167.266-64.154 226.994 4.029 28.493-32.364 70.099-52.222 115.36-52.222 0.2 0 0.092 12.937 0.092-273.022 0-3.312-2.696-6.008-6.008-6.008zM907.414 554.137h-53.061c-31.559 0-59.209 21.316-67.242 51.836-27.738 105.415-48.735 185.205-71.029 269.918h85.92c2.309 0 4.442-1.348 5.431-3.436-0.2 0.202-0.567 1.194 129.034-272.407 10.105-21.336-5.461-45.91-29.054-45.91z" />
<glyph unicode="&#xe92e;" glyph-name="snapchat" d="M886.571 120.107c38.912 6.101 119.424 20.181 134.827 55.637 7.765 18.261-3.328 33.109-17.493 35.371v0.043c-136.875 22.528-198.571 162.731-201.088 168.704-37.931 68.011 65.024 56.576 105.515 98.048 39.509 40.661-23.851 84.693-63.488 66.005-16.256-7.637-40.619-16.512-56.832-9.088 3.84 64.384 14.464 171.136-11.605 229.419-87.68 196.395-346.24 203.477-466.389 89.472-94.677-89.771-83.072-182.059-74.197-318.891-29.44-12.843-58.539 12.672-79.744 12.672-22.272 0-48.171-14.464-52.352-36.267-5.291-28.629 25.813-47.061 52.736-57.685 45.867-18.005 89.472-23.339 65.28-72.491-0.213-0.384-0.384-0.768-0.512-1.152-34.261-78.251-109.056-153.472-201.131-168.661-14.848-2.432-25.003-18.091-17.579-35.371v-0.085c15.232-35.499 96.512-49.707 134.869-55.68 11.861-22.187 2.773-66.005 39.509-66.005 14.293 0 41.941 9.344 77.227 9.344 51.413 0 68.949-11.221 110.165-40.32 42.325-29.909 88.832-59.136 146.645-54.912 60.203-3.755 104.917 23.936 148.779 54.827l0.043 0.085c42.752 30.080 73.301 52.309 163.84 34.517 66.987-12.971 47.445 32.384 62.976 62.464z" />
<glyph unicode="&#xe92f;" glyph-name="star" d="M1024 563.712l-368.129 31.231-143.873 339.456-143.87-339.456-368.129-31.231 279.552-242.177-83.969-359.935 316.416 190.975 316.416-190.975-83.966 359.935z" />
<glyph unicode="&#xe930;" glyph-name="twitter" d="M918.784 656.512c41.643 29.568 76.672 66.475 105.216 108.971v0.043c-38.101-16.683-78.635-27.776-120.96-33.152 43.52 25.984 76.757 66.816 92.373 116.011-40.576-24.192-85.376-41.259-133.12-50.816-38.528 41.045-93.44 66.432-153.344 66.432-116.224 0-209.792-94.336-209.792-209.963 0-16.64 1.408-32.64 4.864-47.872-174.507 8.533-328.96 92.16-432.725 219.605-18.091-31.445-28.757-67.413-28.757-106.112 0-72.704 37.419-137.131 93.269-174.464-33.749 0.64-66.816 10.453-94.848 25.856v-2.304c0-102.016 72.747-186.752 168.192-206.293-17.109-4.693-35.712-6.912-55.040-6.912-13.44 0-27.008 0.768-39.723 3.584 27.179-83.115 104.405-144.256 196.139-146.261-71.424-55.851-162.133-89.515-260.309-89.515-17.195 0-33.707 0.768-50.219 2.859 93.013-59.947 203.179-94.208 322.048-94.208 370.475 0 611.925 309.077 596.736 624.512z" />
<glyph unicode="&#xe931;" glyph-name="upload" d="M584.985 723.262c-39.643 42.794-105.252 42.943-144.794 0.31l-286.987-309.42 75.079-69.636 284.16 306.374 283.416-305.949 75.12 69.588-285.993 308.733zM460.8 652.8h102.401v-716.8h-102.401v716.8zM51.199 960h921.599v-102.401h-921.599v102.401z" />
<glyph unicode="&#xe932;" glyph-name="user" d="M509.776 960c-118.818 0-215.578-96.407-215.578-215.331v-108.288c0-118.977 96.518-215.331 215.578-215.331 118.818 0 215.578 96.407 215.578 215.331v108.288c0.003 118.977-96.515 215.331-215.578 215.331zM617.566 636.381c0-59.262-48.371-107.54-107.79-107.54-59.581 0-107.79 48.144-107.79 107.54v108.288c0 59.262 48.371 107.54 107.79 107.54 59.581 0 107.79-48.144 107.79-107.54v-108.288zM805.703 292.385c-0.361 0.157-3.332 1.276-7.493 2.814-6.844 2.531-14.597 5.346-23.123 8.37-24.328 8.63-50.056 17.257-76.108 25.329-19.688 6.101-38.822 11.651-57.176 16.525-52.318 13.895-95.662 21.734-129.292 21.734-33.676 0-76.34-7.48-127.248-20.761-19.405-5.063-39.653-10.893-60.488-17.343-25.993-8.049-51.59-16.648-75.744-25.253-8.466-3.016-16.161-5.821-22.947-8.347-4.131-1.536-7.079-2.655-8.713-3.284-76.065-26.456-136.204-111.673-136.204-194.17v-161.998h107.79v161.998c0 36.771 31.248 81.049 65.51 92.981 2.91 1.091 5.48 2.064 9.216 3.456 6.323 2.355 13.544 4.987 21.517 7.827 22.818 8.127 47.015 16.259 71.457 23.826 19.364 5.995 38.079 11.384 55.816 16.012 42.738 11.149 77.649 17.27 100.037 17.27 22.019 0 57.653-6.447 101.626-18.124 16.845-4.474 34.585-9.618 52.936-15.304 24.556-7.609 48.937-15.784 71.977-23.957 8.054-2.857 15.352-5.505 21.752-7.872 3.784-1.4 6.394-2.382 7.68-2.875 35.619-12.614 66.553-56.499 66.553-93.239v-161.998h107.79v161.998c0.003 82.355-59.664 166.997-137.123 194.388z" />
<glyph unicode="&#xe933;" glyph-name="wallet" d="M171.078 732.396c-31.388 0-56.932 25.563-56.932 56.929 0 31.55 25.371 56.929 57.102 56.929h737.673v113.746h-737.673c-94.557 0-170.843-76.312-170.843-170.672 0-2.716 0.064-5.42 0-8.104v-672.831c0-94.099 76.28-170.419 170.528-170.659l681.845-1.727c94.304-0.24 170.816 75.878 170.816 170.123v626.267h-852.517zM909.851 106.126c0-31.246-25.347-56.46-56.788-56.38l-681.845 1.727c-31.593 0.080-57.076 25.576-57.076 56.918v520.002c17.808-6.307 36.97-9.741 56.932-9.741h738.776v-512.527zM795.362 389.739h176.436v113.743h-176.436c-94.288 0-170.795-76.536-170.795-170.752 0-94.245 76.646-170.752 170.798-170.752h176.436v113.743h-176.436c-31.38 0-57.054 25.629-57.054 57.009-0.003 31.406 25.592 57.009 57.052 57.009z" />
<glyph unicode="&#xe934;" glyph-name="whatsapp" d="M746.965 349.568l-0.384-3.2c-93.824 46.763-103.637 52.992-115.755 34.816-8.405-12.587-32.896-41.131-40.277-49.579-7.467-8.32-14.891-8.96-27.563-3.2-12.8 6.4-53.888 19.84-102.528 63.36-37.888 33.92-63.317 75.52-70.827 88.32-12.501 21.589 13.653 24.661 37.461 69.717 4.267 8.96 2.091 16-1.067 22.357-3.2 6.4-28.672 69.12-39.339 94.123-10.24 24.917-20.779 21.76-28.672 21.76-24.576 2.133-42.539 1.792-58.368-14.677-68.864-75.691-51.499-153.771 7.424-236.8 115.797-151.552 177.493-179.456 290.304-218.197 30.464-9.685 58.24-8.32 80.213-5.163 24.491 3.883 75.392 30.763 86.016 60.843 10.88 30.080 10.88 55.040 7.68 60.8-3.157 5.76-11.52 8.96-24.32 14.72zM875.52 812.843c-328.064 317.141-870.997 87.125-871.211-360.277 0-89.429 23.424-176.64 68.053-253.653l-72.363-262.912 270.293 70.485c337.28-182.187 753.536 59.733 753.707 445.824 0 135.509-52.907 263.040-149.12 358.869zM938.752 453.717c-0.256-325.675-357.76-529.067-640.512-362.837l-15.36 9.131-160-41.6 42.88 155.52-10.197 16c-175.957 280.107 26.197 646.187 359.509 646.187 113.237 0 219.52-44.16 299.563-124.16 80-79.317 124.117-185.6 124.117-298.24z" />
<glyph unicode="&#xe935;" glyph-name="youtube" d="M1001.344 707.029l1.28-8.363c-12.373 43.904-45.781 77.781-88.235 90.112l-0.896 0.213c-79.829 21.675-401.067 21.675-401.067 21.675s-320.427 0.427-401.067-21.675c-43.264-12.544-76.715-46.421-88.875-89.429l-0.213-0.896c-29.824-155.776-30.037-342.955 1.323-509.739l-1.323 8.448c12.373-43.904 45.781-77.781 88.235-90.112l0.896-0.213c79.744-21.717 401.067-21.717 401.067-21.717s320.384 0 401.067 21.717c43.307 12.544 76.757 46.421 88.917 89.429l0.213 0.896c13.568 72.448 21.333 155.819 21.333 240.981 0 3.115 0 6.272-0.043 9.429 0.043 2.901 0.043 6.357 0.043 9.813 0 85.205-7.765 168.576-22.656 249.429zM409.941 292.224v311.168l267.349-155.819z" />
<glyph unicode="&#xe936;" glyph-name="barcode" d="M938.667 832h-853.333c-47.063 0-85.333-38.271-85.333-85.333v-597.333c0-47.063 38.271-85.333 85.333-85.333h853.333c47.063 0 85.333 38.271 85.333 85.333v597.333c0 47.063-38.271 85.333-85.333 85.333zM938.667 149.333h-853.333l-0.042 597.333h853.375zM213.333 213.333c23.552 0 42.667 19.115 42.667 42.667v384c0 23.552-19.115 42.667-42.667 42.667s-42.667-19.115-42.667-42.667v-384c0-23.552 19.115-42.667 42.667-42.667zM362.667 448c23.552 0 42.667 19.115 42.667 42.667v149.333c0 23.552-19.115 42.667-42.667 42.667s-42.667-19.115-42.667-42.667v-149.333c0-23.552 19.115-42.667 42.667-42.667zM362.667 213.333c23.552 0 42.667 19.115 42.667 42.667v85.333c0 23.552-19.115 42.667-42.667 42.667s-42.667-19.115-42.667-42.667v-85.333c0-23.552 19.115-42.667 42.667-42.667zM512 277.333c23.552 0 42.667 19.115 42.667 42.667v320c0 23.552-19.115 42.667-42.667 42.667s-42.667-19.115-42.667-42.667v-320c0-23.552 19.115-42.667 42.667-42.667zM661.333 384c23.552 0 42.667 19.115 42.667 42.667v213.333c0 23.552-19.115 42.667-42.667 42.667s-42.667-19.115-42.667-42.667v-213.333c0-23.552 19.115-42.667 42.667-42.667zM661.333 213.333c23.552 0 42.667 19.115 42.667 42.667v21.333c0 23.552-19.115 42.667-42.667 42.667s-42.667-19.115-42.667-42.667v-21.333c0-23.552 19.115-42.667 42.667-42.667zM810.667 213.333c23.552 0 42.667 19.115 42.667 42.667v384c0 23.552-19.115 42.667-42.667 42.667s-42.667-19.115-42.667-42.667v-384c0-23.552 19.115-42.667 42.667-42.667z" />
<glyph unicode="&#xe937;" glyph-name="camera" d="M600.712 774.091h-0.289c0.105-0.015 0.206-0.018 0.307-0.024l-0.018 0.024zM930.582 731.43h-187.13l-66.968 97.517c-14.705 21.412-47.531 38.659-73.414 38.659h-279.288c-25.742 0-58.805-17.146-73.534-38.295l-68.164-97.881h-88.377c-51.934 0-93.707-41.797-93.707-93.357v-516.32c0-51.485 41.9-93.357 93.587-93.357h836.824c51.538 0 93.587 41.797 93.587 93.357v516.32c0.002 51.485-41.824 93.357-93.416 93.357zM326.987 775.868c-0.079-0.112-0.151-0.219-0.224-0.322l0.224 0.322zM930.413 121.909c-557.931 0.013-836.896-0.039-836.896-0.158 0.048 344.11 0.112 516.162 0.193 516.162h137.208l94.834 136.175h274.674c-0.107 0.375-0.384 0.98-1.028 1.918l1.317-1.918h2.358c-1.010 0-1.646-0.079-2.341-0.024l93.499-136.151h236.256c-0.042-344.002-0.066-516.004-0.075-516.004zM462.904 591.156c-103.294 0-187.031-83.737-187.031-187.031s83.737-187.031 187.031-187.031 187.031 83.737 187.031 187.031-83.737 187.031-187.031 187.031zM462.904 310.608c-51.647 0-93.517 41.867-93.517 93.517s41.87 93.517 93.517 93.517 93.517-41.87 93.517-93.517-41.87-93.517-93.517-93.517zM743.452 544.399h93.517v-93.517h-93.517v93.517z" />
<glyph unicode="&#xe938;" glyph-name="grid" d="M341.443 960h-227.773c-62.787 0-113.669-50.891-113.669-113.669v-227.771c0-62.787 50.891-113.669 113.669-113.669h227.771c62.787 0 113.669 50.891 113.669 113.669v227.771c0.003 62.787-50.891 113.669-113.667 113.669zM341.333 618.667h-227.555v227.555h227.555v-227.555zM910.331 960h-227.771c-62.787 0-113.669-50.891-113.669-113.669v-227.771c0-62.787 50.891-113.669 113.669-113.669h227.771c62.787 0 113.669 50.891 113.669 113.669v227.771c0 62.787-50.891 113.669-113.669 113.669zM910.221 618.667h-227.555v227.555h227.555v-227.555zM341.443 391.112h-227.773c-62.787 0-113.669-50.893-113.669-113.669v-227.771c0-62.789 50.891-113.672 113.669-113.672h227.771c62.787 0 113.669 50.891 113.669 113.669v227.771c0.003 62.789-50.891 113.672-113.667 113.672zM341.333 49.779h-227.555v227.555h227.555v-227.555zM910.331 391.112h-227.771c-62.787 0-113.669-50.891-113.669-113.669v-227.771c0-62.787 50.891-113.669 113.669-113.669h227.771c62.787-0.003 113.669 50.888 113.669 113.667v227.771c0 62.789-50.891 113.672-113.669 113.672zM910.221 49.779h-227.555v227.555h227.555v-227.555z" />
<glyph unicode="&#xe939;" glyph-name="image" d="M930.91 866.908h-837.819c-51.412 0-93.092-41.677-93.092-93.090v-651.638c0-51.412 41.679-93.092 93.092-93.092h837.819c51.412 0 93.092 41.679 93.092 93.092v651.638c-0.002 51.412-41.679 93.090-93.092 93.090zM930.91 122.181h-837.819v651.638h837.819v-651.638zM594.016 457.309l-127.128-55.855-133.213 279.273-152.001-465.454h97.929l70.287 215.232 71.826-150.576 137.758 60.524 82.377-125.18h111.439zM837.819 587.635c0-51.413-41.679-93.092-93.092-93.092s-93.092 41.679-93.092 93.092c0 51.413 41.679 93.092 93.092 93.092s93.092-41.679 93.092-93.092z" />
<glyph unicode="&#xe93a;" glyph-name="filter" d="M398.222 106.667h227.556v113.778h-227.556v-113.778zM0 789.333v-113.778h1024v113.778h-1024zM170.667 391.111h682.667v113.778h-682.667v-113.778z" />
<glyph unicode="&#xe93b;" glyph-name="logout" d="M725.586 489.966c-23.222 0-42.047-18.825-42.047-42.047v-208.231c0-3.312-2.695-6.007-6.007-6.007h-251.614v470.523c0 14.496-7.468 27.973-19.762 35.656l-217.392 135.869h488.767c3.312 0 6.007-2.695 6.007-6.007v-80.089c0-23.222 18.825-42.047 42.047-42.047s42.047 18.825 42.047 42.047v80.089c0 49.681-40.419 90.1-90.1 90.1-677.621 0-638.722 1.093-648.511-2.122-15.131-4.98-26.682-18.386-28.614-35.103-0.461-4.044-0.296 48.192-0.296-730.962 0-14.496 7.468-27.973 19.762-35.656l341.714-213.571c27.739-17.337 64.331 2.491 64.331 35.656v171.525h251.614c49.681 0 90.1 40.419 90.1 90.1v208.231c0 23.22-18.827 42.047-42.047 42.047zM341.826 53.925l-257.62 161.013v626.973l257.62-161.013zM255.73 511.323c-23.222 0-42.047-18.825-42.047-42.047v-42.715c0-23.222 18.825-42.047 42.047-42.047s42.047 18.825 42.047 42.047v42.715c0 23.22-18.827 42.047-42.047 42.047zM853.060 618.775c0 23.222-18.825 42.047-42.047 42.047h-213.569c-23.222 0-42.047-18.825-42.047-42.047s18.825-42.047 42.047-42.047h213.569c23.22 0 42.047 18.825 42.047 42.047zM892.57 499.71c18.503-13.873 44.874-10.247 58.865 8.407l64.071 85.427c11.214 14.951 11.214 35.505 0 50.456l-64.071 85.429c-13.931 18.573-40.283 22.343-58.863 8.409-18.577-13.933-22.343-40.287-8.409-58.863l45.15-60.201-45.15-60.197c-13.933-18.579-10.169-44.934 8.407-58.867zM981.871 404.537h-106.787c-23.222 0-42.047-18.825-42.047-42.047s18.825-42.047 42.047-42.047h106.787c23.222 0 42.047 18.825 42.047 42.047s-18.827 42.047-42.047 42.047z" />
<glyph unicode="&#xe93c;" glyph-name="idea" d="M512 960c-207.179 0-341.333-150.807-341.333-341.333 0-76.441 27.269-129.177 85.433-196.562 4.133-4.789 17.797-20.395 18.359-21.040 6.731-7.73 11.614-13.493 16.016-18.955 19.641-24.37 27.358-40.464 27.358-56.014v-97.312c0-57.152 48.635-98.217 104.955-88.848l195.461 32.517c50.208 8.352 88.953 54.064 88.953 104.88v48.761c0 15.607 7.655 31.655 27.159 55.968 4.368 5.445 9.209 11.184 15.902 18.91 0.325 0.375 14.098 16.185 18.24 21.008 57.728 67.237 84.832 120.080 84.832 196.686-0.002 190.91-133.998 341.335-341.335 341.335zM694.51 485.511c-3.87-4.507-17.429-20.071-17.954-20.679-7.429-8.576-12.985-15.163-18.263-21.742-32.094-40.005-48.613-74.638-48.613-116.994v-48.761c0-3.127-4.258-8.151-7.433-8.679l-186.889-31.090v88.533c0 42.421-16.642 77.125-48.951 117.211-5.319 6.599-10.921 13.211-18.391 21.792-0.761 0.875-14.226 16.254-18.091 20.731-44.295 51.317-61.735 85.042-61.735 132.839 0 139.042 93.198 243.81 243.81 243.81 150.802 0 243.81-104.411 243.81-243.81 0-48.151-17.344-81.963-61.301-133.161zM365.714 33.525v-97.525l291.529 51.12v97.522z" />
<glyph unicode="&#xe93d;" glyph-name="quote" d="M313.696 849.081h-171.223c-78.694 0-142.473-63.798-142.473-142.492v-171.258c0-78.71 63.83-142.489 142.553-142.489h85.531v114.046h-85.531c-15.757 0-28.507 12.739-28.507 28.445v171.255c0 15.714 12.726 28.443 28.427 28.443h171.223c15.621 0 28.427-12.862 28.427-28.737v-516.596c0-15.861-12.851-28.737-28.507-28.737h-85.531v-114.046h85.531c78.691 0 142.553 63.982 142.553 142.78v516.601c-0.003 78.753-63.76 142.783-142.473 142.783zM881.527 849.081h-171.223c-78.694 0-142.473-63.795-142.473-142.489v-171.258c0-78.71 63.83-142.489 142.553-142.489h85.531v114.046h-85.529c-15.757 0-28.507 12.739-28.507 28.445v171.252c0 15.714 12.726 28.443 28.427 28.443h171.223c15.621 0 28.427-12.862 28.427-28.737v-516.596c0-15.861-12.851-28.737-28.507-28.737h-85.531v-114.046h85.531c78.691 0 142.553 63.982 142.553 142.78v516.601c-0.003 78.753-63.76 142.783-142.476 142.783z" />
<glyph unicode="&#xe93e;" glyph-name="check" d="M934.914 883.342l-602.134-701.246-252.578 236.201-80.202-85.761 342.057-319.879 681.943 794.192z" />
<glyph unicode="&#xe93f;" glyph-name="bank" d="M552 744c0-22.091-17.909-40-40-40s-40 17.909-40 40c0 22.091 17.909 40 40 40s40-17.909 40-40zM984 20h-944c-22.092 0-40-17.908-40-40s17.908-40 40-40h944c22.092 0 40 17.908 40 40s-17.908 40-40 40zM1024 706c0 15.814-9.316 30.142-23.77 36.56l-473 210c-10.358 4.6-22.174 4.586-32.52-0.026l-471-210c-14.42-6.43-23.71-20.744-23.71-36.534v-106c0-0.338 0.042-0.664 0.050-1-0.008-0.336-0.050-0.662-0.050-1 0-22.092 17.908-40 40-40 23.486 0 34-20.090 34-40v-373.032c0-0.838 0.076-1.658 0.126-2.484-0.052-0.826-0.126-1.646-0.126-2.484 0-22.092 17.908-40 40-40h800c22.092 0 40 17.908 40 40s-17.908 40-40 40h-120v338c0 22.056 17.944 40 40 40s40-17.944 40-40v-177.034c0-22.092 17.908-40 40-40s40 17.908 40 40v177.034c0 9.384 2.164 40 30 40 22.092 0 40 17.908 40 40 0 0.338-0.042 0.664-0.050 1 0.008 0.336 0.050 0.662 0.050 1v106zM234 180h-80v338c0 22.056 17.944 40 40 40s40-17.944 40-40v-338zM394 180h-80v338c0 22.056 17.944 40 40 40s40-17.944 40-40v-338zM554 180h-80v338c0 22.056 17.944 40 40 40s40-17.944 40-40v-338zM714 180h-80v338c0 22.056 17.944 40 40 40s40-17.944 40-40v-338zM944 640h-864v40.038l431.036 192.182 432.964-192.226v-39.994z" />
<glyph unicode="&#xe940;" glyph-name="attachment" d="M765.295 856.574v-565.457c0-139.832-113.377-253.171-253.295-253.171-139.983 0-253.295 113.322-253.295 253.498v413.52c0 84.268 67.712 152.445 151.896 153.083 83.94-0.638 151.901-68.961 151.901-152.864v-410.641c0-28.061-22.866-50.903-50.929-50.903-28.163 0-50.929 22.728-50.929 50.793v460.194h-101.947v-460.192c0-84.409 68.445-152.739 152.876-152.739 84.344 0 152.876 68.46 152.876 152.849v410.639c0 139.818-112.969 253.527-252.655 254.815l-2.377-0.012c-139.966-1.271-252.657-114.871-252.657-255.023v-413.523c0-196.479 158.956-355.442 355.242-355.442 196.216 0 355.242 158.976 355.242 355.118v565.457h-101.947z" />
<glyph unicode="&#xe941;" glyph-name="bar" d="M204.799 448.001h-102.398c-56.556 0-102.401-45.847-102.401-102.401v-307.2c0-56.554 45.845-102.401 102.401-102.401h102.401c56.551 0 102.398 45.847 102.398 102.401v307.2c0 56.554-45.847 102.401-102.401 102.401zM204.799 38.401h-102.398v307.2h102.401v-307.2zM563.2 960h-102.401c-56.554 0-102.401-45.845-102.401-102.401v-819.199c0-56.554 45.847-102.401 102.401-102.401h102.401c56.554 0 102.401 45.847 102.401 102.401v819.199c-0.002 56.556-45.847 102.401-102.401 102.401zM563.2 38.401h-102.401v819.199h102.401v-819.199zM921.599 755.201h-102.401c-56.554 0-102.401-45.847-102.401-102.401v-614.4c0-56.554 45.845-102.401 102.401-102.401h102.401c56.554 0 102.401 45.847 102.401 102.401v614.4c0 56.554-45.847 102.401-102.401 102.401zM921.599 38.401h-102.401v614.4h102.401v-614.4z" />
<glyph unicode="&#xe942;" glyph-name="folder" d="M870.318 750.86h-432.507l0.473-0.783c0.305-0.432 0.661-1.093 1.268-2.102l-1.268 2.102c-0.396 0.562-0.711 0.737-1.393 0.783h-2.301c1.091 0 1.797 0.036 2.301 0h0.918l-35.585 58.907c-16.57 27.427-50.636 46.611-82.64 46.611h-165.957c-84.855 0-153.627-68.72-153.627-153.581v-509.591c0-84.91 68.729-153.581 153.826-153.581h716.345c85.001 0 153.826 68.744 153.826 153.821v403.593c0.002 84.991-68.645 153.821-153.68 153.821zM921.509 193.446c0-28.448-22.911-51.333-51.338-51.333h-716.345c-28.513 0-51.338 22.806-51.338 51.093v509.591c0 28.242 22.868 51.093 51.139 51.093h162.613l-0.444 0.735c-0.312 0.432-0.668 1.105-1.3 2.15l1.3-2.15c0.37-0.512 0.675-0.685 1.304-0.735h-0.86l35.585-58.907c16.615-27.504 50.648-46.611 82.762-46.611h435.728c28.371 0 51.191-22.882 51.191-51.333v-403.593z" />
<glyph unicode="&#xe943;" glyph-name="list" d="M255.999 511.2h768.001v-128.001h-768.001v128.001zM0 512.799h128.001v-128.001h-128.001v128.001zM255.999 127.199h768.001v-128.001h-768.001v128.001zM0 128.798h128.001v-128.001h-128.001v128.001zM255.999 895.2h768.001v-128.001h-768.001v128.001zM0 896.799h128.001v-128.001h-128.001v128.001z" />
<glyph unicode="&#xe944;" glyph-name="stack" d="M926.669 735.951l-320.803 199.835c-51.818 32.279-135.89 32.292-187.731 0l-320.803-199.835c-51.818-32.279-51.841-84.65 0-116.942l320.803-199.835c51.818-32.279 135.89-32.292 187.731 0l320.803 199.835c51.818 32.279 51.841 84.65 0 116.942zM560.405 513.261c-26.433-16.774-69.399-16.705-95.721 0l-258.447 164.010 258.447 163.51c26.433 16.723 69.399 16.652 95.721 0l258.447-163.51-258.447-164.010zM926.669 503.002l-6.693 4.169-359.571-226.859c-26.433-16.774-69.399-16.705-95.721 0l-258.388 164.047-100.994 63.612-7.972-4.966c-51.818-32.279-51.841-84.65 0-116.942l320.803-199.835c51.818-32.279 135.89-32.292 187.731 0l320.803 199.835c51.82 32.276 51.844 84.647 0.003 116.939zM926.669 276.988l-6.693 4.169-359.571-226.859c-26.433-16.774-69.399-16.705-95.721 0l-258.386 164.047-100.994 63.609-7.972-4.966c-51.818-32.279-51.841-84.65 0-116.942l320.803-199.835c51.818-32.279 135.89-32.292 187.731 0l320.803 199.835c51.818 32.279 51.841 84.65 0 116.942z" />
<glyph unicode="&#xe945;" glyph-name="book" d="M255.241 38.702c-27.431 0-49.742 21.363-51.251 48.348 1.512 27.029 23.866 48.348 51.46 48.348h666.599v824.602h-692.636c-70.657 0-128.204-57.56-128.212-128.38l-0.017-179.718 51.35-0.005h-51.326v-564.855h0.055c-0.019-0.972-0.055-1.938-0.055-2.915h0.108c3.069-82.357 70.748-148.127 153.924-148.127h667.574v102.702h-667.574zM203.884 651.898l0.017 179.713c0.002 14.11 11.578 25.688 25.51 25.688h589.937v-619.202h-563.9c-18.077 0-35.425-3.095-51.542-8.783v422.584h-0.022z" />
<glyph unicode="&#xe946;" glyph-name="dashboard" d="M512.001 866.908c-282.77 0-512.001-229.229-512.001-511.999 0-31.909 6.458-88.255 19.375-169.034 14.444-90.33 92.37-156.783 183.847-156.783h616.63c91.691 0 169.732 66.757 183.934 157.342 13.477 85.948 20.215 142.108 20.215 168.476 0 282.77-229.229 511.999-511.999 511.999zM911.82 200.851c-7.102-45.29-46.124-78.67-91.968-78.67h-616.63c-45.74 0-84.7 33.227-91.922 78.393-12.177 76.152-18.207 128.764-18.207 154.335 0 231.358 187.551 418.909 418.909 418.909s418.909-187.551 418.909-418.909c0-19.791-6.393-73.069-19.091-154.058zM605.093 308.362c0-51.413-41.679-93.092-93.092-93.092s-93.092 41.679-93.092 93.092c0 51.413 41.679 93.092 93.092 93.092s93.092-41.679 93.092-93.092zM462.569 317.509l248.73 256.012 66.765-64.866-248.73-256.012-66.765 64.866z" />
<glyph unicode="&#xe947;" glyph-name="amazing" d="M18.708 310.917c5.375-20.146 12.375-40.281 21.438-61.698 2.667-6.229 5.552-12.437 8.917-19.74l2.26-4.708c2.198-4.594 4.417-9.24 6.771-13.781 2.385-4.656 4.927-9.198 7.531-13.781l2.792-5c45.823-79.573 112.594-145.552 193.75-191.167l2.135-1.146c4.563-2.479 9.146-4.948 13.906-7.427l16.958-8.281c3.198-1.594 6.469-3.156 7.792-3.625 5.375-2.448 11.021-4.885 16.229-6.927 13.063-5.271 26.521-10.135 40-14.49l2.604-0.792c6.229-1.875 12.354-3.687 18.604-5.198 3.458-0.969 7.083-1.844 11.135-2.781 6.042-1.573 12.354-3.115 16.469-3.771 6.76-1.5 13.521-2.75 18.906-3.542 5.333-0.958 10.917-1.729 15.010-2.219 2.135-0.365 4.25-0.667 6.51-0.854 4.885-0.771 9.604-1.26 14.438-1.729 7.51-0.677 15-1.156 22.677-1.604 8.667-0.417 17.562-0.656 26.458-0.656s17.792 0.24 26.625 0.729c7.51 0.448 15 0.896 22.656 1.594 4.687 0.448 9.365 0.917 14.208 1.708 2.115 0.146 3.865 0.406 5.094 0.615 5.594 0.729 11.156 1.479 15.104 2.219 6.771 1.010 13.531 2.271 18.375 3.396 6.031 1.042 12.344 2.583 19.094 4.313 3.448 0.812 7.010 1.667 10.448 2.625 6.271 1.51 12.479 3.365 20.563 5.802 13.917 4.24 27.802 9.26 40.26 14.521 5.615 2.198 11.24 4.635 14.698 6.281 3.24 1.292 6.51 2.854 8.167 3.729l19.115 9.323c4.552 2.365 8.948 4.76 13.312 7.125l2.76 1.49c80.51 45.271 147.281 111.26 193.427 191.385l2.469 4.438c2.583 4.583 5.125 9.104 7.531 13.781 2.354 4.521 4.594 9.177 6.771 13.781l2.771 5.781c2.875 6.229 5.76 12.438 8.49 18.833 8.979 21.25 15.979 41.365 21.375 61.656 1.792 6.76 3.604 13.781 5.167 20.438 8.979 37.74 13.521 76.927 13.521 116.437 0 282.323-229.698 512-512 512s-512-229.677-512-512c0-39.51 4.542-78.698 13.5-116.417 1.583-6.76 3.396-13.76 5.208-20.667zM512 874.667c235.26 0 426.667-191.406 426.667-426.667 0-32.875-3.771-65.448-11.24-96.917-1.406-6.021-3.031-12.25-4.594-18.156-4.323-16.281-10.063-32.698-17.385-50.094-2.344-5.458-4.885-10.917-7.292-16.125l-2.438-5.073c-1.833-3.802-3.667-7.667-5.604-11.417-1.969-3.781-4.010-7.469-6.125-11.177l-2.344-4.208c-38.167-66.281-93.823-121.271-160.385-158.677l-2.156-1.167c-4.198-2.26-8.427-4.552-12.802-6.833l-15.635-7.594c-1.042-0.51-2.073-1.083-4.99-2.323-4.010-1.813-8.198-3.646-13.375-5.698-10.781-4.542-21.875-8.552-34.76-12.479-4.854-1.448-9.573-2.917-14.479-4.052l-2.417-0.635c-2.24-0.667-4.604-1.198-6.885-1.729l-2.927-0.688c-3.75-0.979-7.677-2-13.354-3.031-4.771-1.062-9.51-1.937-15.677-2.875-3.948-0.729-8.083-1.24-12.177-1.771l-6.385-0.792c-3.448-0.635-6.74-0.896-9.896-1.198-6.594-0.594-13.167-1-19.583-1.365-14.25-0.781-29.417-0.781-43.333 0-6.583 0.385-13.156 0.792-19.604 1.365-3.281 0.323-6.583 0.583-10.042 1.219l-6.385 0.771c-4.094 0.531-8.25 1.042-13.583 2-4.781 0.708-9.521 1.604-16.219 3.031-3.75 0.667-7.677 1.667-11.427 2.667l-2.927 0.687c-2.281 0.531-4.646 1.063-6.885 1.729l-2.417 0.635c-4.885 1.135-9.625 2.604-15.573 4.396-11.604 3.729-23.021 7.875-34.646 12.542-4.177 1.646-8.385 3.479-14.271 6.104-1.042 0.427-2.073 0.979-4.646 2.24l-14.104 6.865c-4.375 2.26-8.573 4.552-12.802 6.833l-1.51 0.833c-67.156 37.76-122.844 92.75-160.687 158.458l-2.667 4.781c-2.115 3.708-4.156 7.406-6.125 11.177-1.938 3.76-3.771 7.594-5.604 11.417l-2.312 4.823c-2.51 5.458-5.052 10.917-7.333 16.208-7.427 17.562-13.146 33.99-17.448 50.135-1.583 6.031-3.177 12.26-4.635 18.406-7.469 31.302-11.24 63.875-11.24 96.75 0 235.26 191.406 426.667 426.667 426.667zM512 106.667c164.698 0 298.667 133.969 298.667 298.667v42.667h-597.333v-42.667c0-164.698 133.969-298.667 298.667-298.667zM721.042 362.667c-19.812-97.26-106.021-170.667-209.042-170.667s-189.229 73.406-209.042 170.667zM320 512h85.333v64h64v85.333h-64v64h-85.333v-64h-64v-85.333h64zM618.667 512h85.333v64h64v85.333h-64v64h-85.333v-64h-64v-85.333h64z" />
<glyph unicode="&#xe948;" glyph-name="meh" d="M298.667 320h426.667v-85.333h-426.667zM512 960c-282.323 0-512-229.677-512-512s229.677-512 512-512 512 229.677 512 512-229.677 512-512 512zM512 21.333c-235.26 0-426.667 191.406-426.667 426.667s191.406 426.667 426.667 426.667 426.667-191.406 426.667-426.667-191.406-426.667-426.667-426.667zM298.667 576h85.333v-85.333h-85.333zM640 576h85.333v-85.333h-85.333z" />
<glyph unicode="&#xe949;" glyph-name="sad" d="M512.208 362.875c-73.25 0-143.844-26.573-198.802-74.812l-32.063-28.135 56.302-64.125 32.062 28.135c39.375 34.563 90 53.604 142.531 53.604 52.562 0 103.073-18.958 142.312-53.396l32.063-28.135 56.302 64.104-32.073 28.167c-54.823 48.104-125.354 74.594-198.635 74.594zM512 960c-282.323 0-512-229.677-512-512s229.677-512 512-512c282.302 0 512 229.677 512 512s-229.698 512-512 512zM512 21.333c-235.26 0-426.667 191.406-426.667 426.667s191.406 426.667 426.667 426.667 426.667-191.406 426.667-426.667-191.406-426.667-426.667-426.667zM298.667 576h85.333v-85.333h-85.333zM640 576h85.333v-85.333h-85.333z" />
<glyph unicode="&#xe94a;" glyph-name="smile" d="M654.531 330.948c-39.406-34.563-90.010-53.615-142.531-53.615-52.542 0-103.083 18.969-142.313 53.396l-32.062 28.135-56.302-64.125 32.062-28.135c54.802-48.104 125.333-74.604 198.615-74.604 73.26 0 143.854 26.583 198.802 74.813l32.063 28.146-56.292 64.125zM512 960c-282.323 0-512-229.677-512-512s229.677-512 512-512 512 229.677 512 512-229.677 512-512 512zM512 21.333c-235.26 0-426.667 191.406-426.667 426.667s191.406 426.667 426.667 426.667 426.667-191.406 426.667-426.667-191.406-426.667-426.667-426.667zM298.667 576h85.333v-85.333h-85.333zM640 576h85.333v-85.333h-85.333z" />
<glyph unicode="&#xe94b;" glyph-name="globe" d="M512-64c282.315 0 511.997 229.682 511.997 511.997 0 282.318-229.682 512.003-511.997 512.003s-511.997-229.685-511.997-512.003c0-282.315 229.682-511.997 511.997-511.997zM178.184 195.219c40.569 15.956 91.647 28.672 149.059 37.385 7.795-46.797 18.14-90.18 30.894-128.449 6.681-20.042 13.715-37.733 20.983-53.449-80.688 27.058-150.484 78.053-200.936 144.513zM93.093 447.997c0 61.269 13.225 119.506 36.96 172.009 50.34-21.55 113.93-38.223 185.566-48.987-3.488-39.753-5.315-80.998-5.315-123.022 0-42.021 1.828-83.269 5.315-123.019-71.636-10.767-135.229-27.44-185.563-48.99-23.738 52.503-36.963 110.74-36.963 172.009zM512 866.91c10.023 0 39.234-25.541 65.554-104.503 10.817-32.458 19.713-69.269 26.577-109.127-29.922-2.091-60.779-3.196-92.144-3.196-31.356 0-62.203 1.102-92.119 3.196 6.864 39.858 15.76 76.666 26.58 109.124 26.32 78.965 55.528 104.506 65.551 104.506zM511.988 556.993c35.458 0 70.218 1.303 103.886 3.789 3.109-36.321 4.732-74.134 4.732-112.785s-1.623-76.458-4.729-112.779c-33.668 2.486-68.421 3.789-103.876 3.789s-70.209-1.303-103.873-3.789c-3.109 36.321-4.732 74.131-4.732 112.779 0 38.651 1.623 76.461 4.732 112.785 33.661-2.486 68.412-3.789 103.861-3.789zM930.907 447.997c0-61.266-13.225-119.5-36.96-172.003-50.34 21.55-113.93 38.22-185.566 48.984 3.488 39.75 5.315 80.995 5.315 123.019 0 42.027-1.828 83.272-5.315 123.025 71.636 10.764 135.226 27.44 185.56 48.993 23.741-52.506 36.966-110.746 36.966-172.019zM512 29.090c-10.023 0-39.231 25.544-65.548 104.503-10.82 32.461-19.717 69.269-26.583 109.127 29.922 2.095 60.769 3.196 92.132 3.196s62.212-1.102 92.132-3.196c-6.864-39.858-15.76-76.669-26.577-109.127-26.32-78.962-55.528-104.503-65.554-104.503zM644.886 50.706c7.264 15.717 14.299 33.407 20.979 53.449 12.756 38.269 23.102 81.653 30.897 128.449 57.406-8.713 108.484-21.426 149.053-37.382-50.449-66.457-120.242-117.455-200.929-144.517zM845.81 700.784c-40.563-15.956-91.641-28.675-149.050-37.385-7.795 46.793-18.137 90.18-30.894 128.446-6.678 20.042-13.715 37.733-20.983 53.452 80.685-27.064 150.477-78.056 200.926-144.513zM379.12 845.294c-7.267-15.714-14.299-33.407-20.983-53.449-12.753-38.273-23.099-81.656-30.894-128.452-57.412 8.713-108.491 21.429-149.059 37.382 50.449 66.46 120.245 117.461 200.936 144.52z" />
<glyph unicode="&#xe94c;" glyph-name="more" d="M128.001 576c-70.722 0-128.001-57.279-128.001-128.001s57.279-128.001 128.001-128.001c70.719 0 128.001 57.279 128.001 128.001s-57.282 128.001-128.001 128.001zM512.002 576c-70.722 0-128.001-57.279-128.001-128.001s57.279-128.001 128.001-128.001 128.001 57.279 128.001 128.001-57.282 128.001-128.001 128.001zM896.002 576c-70.722 0-128.001-57.279-128.001-128.001s57.279-128.001 128.001-128.001c70.719 0 128.001 57.279 128.001 128.001s-57.282 128.001-128.001 128.001z" />
</font>
</defs>
</svg>
